<?xml version="1.0" encoding="UTF-8" standalone="no"?>
<svg xmlns="http://www.w3.org/2000/svg" viewBox="0 0 128 128" width="128" height="128">
  <path fill="#fff" d="M126.6,102.7l-16.3-16.3c-2-2.2-5.4-2.5-7.7-0.5c-0.1,0.1-0.2,0.2-0.3,0.3c-2,2.1-2,5.4,0,7.5l7.2,7.2h-70C37,92.6,29.3,86.6,20.2,86.6C9,86.6,0,95.6,0,106.8S9,127,20.2,127c9.4,0,17.3-6.5,19.5-15.2h69.8l-7.2,7.2c-2,2.3-1.7,5.7,0.6,7.7c2,1.7,5,1.7,7.1,0l16.6-16.6c0.8-0.9,1.3-2,1.4-3.2c0,0,0-0.3,0-0.4c0-0.2,0-0.3,0-0.4C128,104.7,127.5,103.5,126.6,102.7z M20.2,116.1c-5.1,0-9.3-4.2-9.3-9.3c0-5.1,4.2-9.3,9.3-9.3v-0.1c0,0,0,0,0.1,0c5.1,0,9.3,4.2,9.2,9.4C29.5,111.9,25.3,116.1,20.2,116.1z M100.7,24.5C94.8,35.7,82.5,41.8,68.1,44c-14.4,2.2-24.9-0.9-33.6-3.4C23.1,37.4,14,43.1,4.1,38.1c1.4,1.1,5.3,4.8,12.8,4.9c2.4,0,10.1-0.4,12.1,0.7c-0.7,2.2-4.9,7.7-4.9,7.7s9.8-8.3,12-6.6c-0.1,2.3-2.9,7.8-2.9,7.8s3.9-5.3,6.8-6.5c1.9-0.7,3.5-0.7,4.8,0.9c-0.5,2.2-4.1,8.1-4.1,8.1s7.4-7.2,8.7-6.8c0.1,0,0.1,0.1,0.2,0.1c0.2,2-0.2,6.7-0.2,6.7s2.6-6.4,4.1-6.9c-0.7,3.5-4.7,15-4.7,15s8-14.6,9.5-14.9c0.9-0.2,1.9,1.2,2.5,3.1c0.8,2.8,1.7,7.1,1.7,7.1s-1.2-9.5,0.1-10c2.2-1,3.6-0.4,4.3,1.2c1.1,4.8-0.7,15.1-0.7,15.1S71,53,69,48.9c0-0.2-0.1-0.3-0.1-0.5c3.3,2.3,5.1,5.3,6.2,8.1c1.1,3.8,1.2,8.1,1.2,8.1s1.5-3.2-1.1-10.7c-0.7-2-1.5-4.3-2.9-7c3.6,0.2,8.8,9.3,8.8,9.3s-1.9-3.7-2.8-6.5c-0.7-2.2-0.7-4.1,0.9-4.1c3.7-0.2,8.6,13.8,8.6,13.8s1.5-1.3-1.1-8.9c-0.6-1.9-1.5-4.2-2.7-7c4.1-2.2,13.7,12.9,13.7,12.9S91.8,46.1,90,41.7c-0.2-0.7-0.2-1.1,0-1.3c1.5-1,6.7,4.8,6.7,4.8s-2.2-3.7-3.1-5.6c0-0.3,0-0.5,0.2-0.6c1-0.6,11.8,11,11.8,11s-6.4-8.3-8-11.9c-0.1-0.4,0-0.7,0.2-0.7c0.9-0.7,3.6,0.7,5.7,2c-1.2-0.8-5-4.6-6-5.9c0.1-0.1,0.1-0.2,0.2-0.2c2.9-1.5,11.1,3.6,11.1,3.6s-3.2-3.4-4.2-5c0,0,0-0.1,0.1-0.1c0.8-1,10.6,6.5,10.6,6.5s-7.1-6.5-9-8.9c0.7-0.9,6.7,0.9,6.7,0.9s-5.6-3.6-7.7-5.1c1.2,0,4.9,1.5,4.9,1.5s-2.4-2.8-4.7-3.7c10.8-0.7,18.2-12.2,18.2-12.2s-6.6,7.7-11.9,6.7c4-3.2,7.6-10,7.6-10s-8.8,9.1-15.3,8.4c2.7-2.6,8-12.8,8-12.8s-6.6,10.2-11.3,11.9c2.2-2.2,6.7-11.4,6.7-11.4s-5.4,8-10,9.5c2.4-2.5,5.7-9.2,5.7-9.2s-8.3,10.8-12.1,9.8c3.1-3.7,6.8-10.8,6.8-10.8s-7.4,10.1-9.5,8.4c-0.4-0.1-0.4-0.5-0.2-1.1c0.7-1.1,2.5-3.7,2.5-3.7S87.7,9.5,86,9.6c2.2-2.4,5.5-8.3,5.5-8.3s-7.6,8.7-9.5,7.7l3.6-7.4c0,0-3.6,7.2-8.3,6.2c0.7-0.9,2.9-5.6,2.9-5.6s-3.7,6.1-8.4,4.4c-0.3-0.1-0.4-0.4-0.3-0.7c0.4-0.6,0.8-1,0.8-1l0.7-1.4c0,0-3.1,3-5.2,2.6C65.8,5.6,68,1.7,68,1.7s-3.7,5.9-4.5,5.7c-0.7-0.3,0.4-4.1,0.4-4.1s-2.8,4.5-4.3,4.3c-1.5-0.3-0.1-4.3,0-4.7c-0.1,0.2-2.4,4.6-2.8,4.5c-1.2-0.4-1.5-3.3-1.5-3.3s-0.2,1.5-0.7,2.7L54,8.1c-0.3,0.3-0.6,0.5-0.8,0.6C39.6,11.2,24.5,17,5.8,35.9c0.6-0.3,19.6-15.1,35.7-20.1c-0.5,1.2-0.7,2.3-0.7,3.4c-0.7,9.7,9.5,16.6,11.7,17.1c9.3,2.2,21.1-1.1,25.7-6.8c2-3.2,2.5-6.4,2.4-10.3c0-1.7-0.5-2.7-0.6-3c-0.5-1.1-1.1-2-2.1-2.8c13.2,2.3,20.8,8,24.5,9.5C101.7,22.9,101.1,23.5,100.7,24.5z M61.3,32.3c-2.2,0-3.9-4.6-3.9-10.1s1.8-10.1,3.9-10.1c2.2,0,3.9,4.6,3.9,10.1S63.4,32.3,61.3,32.3z"/>
</svg>
