# This file uses centimeters as units for non-parametric coordinates.

v -0.500000 0.000000 -0.500000
v -0.500000 0.000000 0.500000
v -0.500000 1.000000 -0.500000
v -0.500000 1.000000 0.500000
v 0.500000 1.000000 -0.500000
v 0.500000 1.000000 0.500000
v 0.500000 0.000000 -0.500000
v 0.500000 0.000000 0.500000
vt 0.001992 0.001822
vt 0.455601 0.001822
vt 0.455601 0.455432
vt 0.001992 0.455432
vt 0.462140 0.001822
vt 0.915749 0.001822
vt 0.915749 0.455432
vt 0.462140 0.455432
vt 0.544399 0.459423
vt 0.998008 0.459423
vt 0.998008 0.913032
vt 0.544399 0.913032
vt 0.084655 0.459423
vt 0.538264 0.459423
vt 0.538264 0.913032
vt 0.084655 0.913032
vn -1.000000 0.000000 0.000000
vn -1.000000 0.000000 0.000000
vn -1.000000 0.000000 0.000000
vn -1.000000 0.000000 0.000000
vn 0.000000 1.000000 0.000000
vn 0.000000 1.000000 0.000000
vn 0.000000 1.000000 0.000000
vn 0.000000 1.000000 0.000000
vn 1.000000 0.000000 0.000000
vn 1.000000 0.000000 0.000000
vn 1.000000 0.000000 0.000000
vn 1.000000 0.000000 0.000000
vn 0.000000 0.000000 1.000000
vn 0.000000 0.000000 1.000000
vn 0.000000 0.000000 1.000000
vn 0.000000 0.000000 1.000000
f 1/1/1 2/2/2 4/3/3 3/4/4
f 3/5/5 4/6/6 6/7/7 5/8/8
f 5/9/9 6/10/10 8/11/11 7/12/12
f 2/13/13 8/14/14 6/15/15 4/16/16
