# This file uses centimeters as units for non-parametric coordinates.

v -0.500000 0.000000 0.500000
v 0.500000 0.000000 0.500000
v -0.500000 0.000000 -0.500000
v 0.500000 0.000000 -0.500000
v -0.421421 0.000000 0.421421
v 0.421421 0.000000 0.421421
v 0.421421 0.000000 -0.421421
v -0.421421 0.000000 -0.421421
vt 0.000000 0.446580
vt 1.000000 0.446580
vt 1.000000 0.000000
vt 0.000000 0.000000
vt 1.000000 0.446580
vt 1.000000 0.000000
vt 0.000000 0.446580
vt 0.000000 0.000000
vn 0.000000 1.000000 0.000000
vn 0.000000 1.000000 0.000000
vn 0.000000 1.000000 0.000000
vn 0.000000 1.000000 0.000000
vn 0.000000 1.000000 0.000000
vn 0.000000 1.000000 0.000000
vn 0.000000 1.000000 0.000000
vn 0.000000 1.000000 0.000000
vn 0.000000 1.000000 0.000000
vn 0.000000 1.000000 0.000000
vn 0.000000 1.000000 0.000000
vn 0.000000 1.000000 0.000000
vn 0.000000 1.000000 0.000000
vn 0.000000 1.000000 0.000000
vn 0.000000 1.000000 0.000000
vn 0.000000 1.000000 0.000000
f 1/1/1 2/2/2 6/3/3 5/4/4
f 2/2/5 4/5/6 7/6/7 6/3/8
f 4/5/9 3/7/10 8/8/11 7/6/12
f 3/7/13 1/1/14 5/4/15 8/8/16
