# This file uses centimeters as units for non-parametric coordinates.

v -0.500000 0.000000 0.500000
v 0.500000 0.000000 0.500000
v -0.500000 1.000000 0.500000
v 0.500000 1.000000 0.500000
v -0.500000 1.000000 -0.500000
v 0.500000 1.000000 -0.500000
v -0.500000 0.000000 -0.500000
v 0.500000 0.000000 -0.500000
vt 0.001847 0.001992
vt 0.331385 0.001992
vt 0.331385 0.331530
vt 0.001847 0.331530
vt 0.338211 0.001992
vt 0.667748 0.001992
vt 0.667748 0.331530
vt 0.338211 0.331530
vt 0.596002 0.335231
vt 0.925539 0.335231
vt 0.925539 0.664769
vt 0.596002 0.664769
vt 0.260774 0.335231
vt 0.590312 0.335231
vt 0.590312 0.664769
vt 0.260774 0.664769
vt 0.001847 0.668471
vt 0.331385 0.668471
vt 0.331385 0.998008
vt 0.001847 0.998008
vn 0.000000 0.000000 1.000000
vn 0.000000 0.000000 1.000000
vn 0.000000 0.000000 1.000000
vn 0.000000 0.000000 1.000000
vn 0.000000 1.000000 0.000000
vn 0.000000 1.000000 0.000000
vn 0.000000 1.000000 0.000000
vn 0.000000 1.000000 0.000000
vn 0.000000 0.000000 -1.000000
vn 0.000000 0.000000 -1.000000
vn 0.000000 0.000000 -1.000000
vn 0.000000 0.000000 -1.000000
vn 1.000000 0.000000 0.000000
vn 1.000000 0.000000 0.000000
vn 1.000000 0.000000 0.000000
vn 1.000000 0.000000 0.000000
vn -1.000000 0.000000 0.000000
vn -1.000000 0.000000 0.000000
vn -1.000000 0.000000 0.000000
vn -1.000000 0.000000 0.000000
f 1/1/1 2/2/2 4/3/3 3/4/4
f 3/5/5 4/6/6 6/7/7 5/8/8
f 5/9/9 6/10/10 8/11/11 7/12/12
f 2/13/13 8/14/14 6/15/15 4/16/16
f 7/17/17 1/18/18 3/19/19 5/20/20
