# This file uses centimeters as units for non-parametric coordinates.

v -0.500000 -0.500000 0.500000
v 0.500000 -0.500000 0.500000
v -0.500000 0.500000 0.500000
v 0.500000 0.500000 0.500000
v -0.500000 0.500000 -0.500000
v 0.500000 0.500000 -0.500000
v -0.500000 -0.500000 -0.500000
v 0.500000 -0.500000 -0.500000
vt 0.249911 0.000330
vt 0.500000 0.000330
vt 0.500000 1.000329
vt 0.249911 1.000329
vt 1.000000 -0.000330
vt 0.748717 0.000330
vt 0.748717 1.000329
vt 1.000000 0.999670
vt 0.500000 0.000330
vt 0.748717 0.000330
vt 0.748717 1.000329
vt 0.500000 1.000329
vt -0.000000 0.000330
vt 0.249911 0.000330
vt 0.249911 1.000329
vt -0.000000 1.000329
vn 0.000000 0.000000 1.000000
vn 0.000000 0.000000 1.000000
vn 0.000000 0.000000 1.000000
vn 0.000000 0.000000 1.000000
vn 0.000000 0.000000 -1.000000
vn 0.000000 0.000000 -1.000000
vn 0.000000 0.000000 -1.000000
vn 0.000000 0.000000 -1.000000
vn 1.000000 0.000000 0.000000
vn 1.000000 0.000000 0.000000
vn 1.000000 0.000000 0.000000
vn 1.000000 0.000000 0.000000
vn -1.000000 0.000000 0.000000
vn -1.000000 0.000000 0.000000
vn -1.000000 0.000000 0.000000
vn -1.000000 0.000000 0.000000
f 1/1/1 2/2/2 4/3/3 3/4/4
f 5/5/5 6/6/6 8/7/7 7/8/8
f 2/9/9 8/10/10 6/11/11 4/12/12
f 7/13/13 1/14/14 3/15/15 5/16/16
