# This file uses centimeters as units for non-parametric coordinates.

g default
v -0.266427 0.212467 0.000000
v -0.212468 0.266427 0.000000
v 0.212467 -0.266427 -0.000000
v 0.266427 -0.212467 -0.000000
v -0.000000 -0.707107 0.000000
v 0.707107 -0.000000 -0.000000
v -0.707107 0.000000 0.000000
v 0.000000 0.707107 -0.000000
v 0.000000 -0.620858 0.000000
v 0.620858 -0.000000 -0.000000
v -0.000000 0.620858 -0.000000
v -0.620858 0.000000 0.000000
v -0.212468 -0.266427 0.000000
v -0.266427 -0.212467 0.000000
v 0.266427 0.212467 -0.000000
v 0.212467 0.266427 -0.000000
v 0.212467 -0.266427 0.083089
v 0.266427 -0.212467 0.083089
v -0.212468 0.266427 0.083089
v -0.266427 0.212467 0.083089
v -0.000000 -0.707107 0.083089
v 0.707107 0.000000 0.083089
v 0.620858 0.000000 0.083089
v 0.000000 -0.620858 0.083089
v 0.000000 0.707107 0.083089
v -0.000000 0.620858 0.083089
v -0.707107 0.000000 0.083089
v -0.620858 0.000000 0.083089
v 0.266427 0.212467 0.083089
v 0.212467 0.266427 0.083089
v -0.266427 -0.212467 0.083089
v -0.212468 -0.266427 0.083089
vt 0.182523 0.483158
vt 0.200737 0.501372
vt 0.039087 0.663022
vt 0.020873 0.644808
vt 0.001992 0.240484
vt 0.240675 0.001801
vt 0.240675 0.030914
vt 0.031105 0.240484
vt 0.479358 0.240484
vt 0.450245 0.240484
vt 0.240675 0.479167
vt 0.240675 0.450054
vt 0.774703 0.483158
vt 0.792917 0.501372
vt 0.631267 0.663022
vt 0.613053 0.644808
vt 0.368522 0.663022
vt 0.206872 0.501372
vt 0.225086 0.483158
vt 0.386736 0.644808
vt 0.962893 0.240484
vt 0.933780 0.240484
vt 0.724210 0.030914
vt 0.724210 0.001801
vt 0.724210 0.479167
vt 0.724210 0.450054
vt 0.514640 0.240484
vt 0.485527 0.240484
vt 0.445267 0.483158
vt 0.606918 0.644808
vt 0.588703 0.663022
vt 0.427053 0.501372
vt 0.001992 0.846878
vt 0.001992 0.828664
vt 0.030039 0.828664
vt 0.030039 0.846878
vt 0.001992 0.667014
vt 0.030039 0.667014
vt 0.125644 0.695060
vt 0.107430 0.695060
vt 0.107430 0.667014
vt 0.125644 0.667014
vt 0.072349 0.828664
vt 0.072349 0.667014
vt 0.100396 0.667014
vt 0.100396 0.828664
vt 0.969962 0.479167
vt 0.969962 0.240484
vt 0.998008 0.240484
vt 0.998008 0.479167
vt 0.969962 0.001801
vt 0.998008 0.001801
vt 0.963826 0.483158
vt 0.963826 0.692728
vt 0.935780 0.692728
vt 0.935780 0.483158
vt 0.963826 0.902298
vt 0.935780 0.902298
vt 0.799052 0.692728
vt 0.799052 0.483158
vt 0.827099 0.483158
vt 0.827099 0.692728
vt 0.929644 0.483158
vt 0.929644 0.721841
vt 0.901598 0.721841
vt 0.901598 0.483158
vt 0.833234 0.692728
vt 0.833234 0.483158
vt 0.861281 0.483158
vt 0.861281 0.692728
vt 0.867416 0.721841
vt 0.867416 0.483158
vt 0.895463 0.483158
vt 0.895463 0.721841
vt 0.420918 0.483158
vt 0.420918 0.501372
vt 0.392872 0.501372
vt 0.392872 0.483158
vt 0.420918 0.663022
vt 0.392872 0.663022
vt 0.132767 0.667014
vt 0.150981 0.667014
vt 0.150981 0.695060
vt 0.132767 0.695060
vt 0.037268 0.828664
vt 0.037268 0.667014
vt 0.065315 0.667014
vt 0.065315 0.828664
vn 0.000000 0.000000 1.000000
vn 0.000000 0.000000 1.000000
vn 0.000000 0.000000 1.000000
vn 0.000000 0.000000 1.000000
vn -0.000000 -0.000000 1.000000
vn -0.000000 -0.000000 1.000000
vn -0.000000 -0.000000 1.000000
vn -0.000000 -0.000000 1.000000
vn 0.000000 0.000000 1.000000
vn 0.000000 0.000000 1.000000
vn 0.000000 0.000000 1.000000
vn 0.000000 0.000000 1.000000
vn -0.000000 0.000000 1.000000
vn -0.000000 0.000000 1.000000
vn -0.000000 0.000000 1.000000
vn -0.000000 0.000000 1.000000
vn 0.000000 -0.000000 1.000000
vn 0.000000 -0.000000 1.000000
vn 0.000000 -0.000000 1.000000
vn 0.000000 -0.000000 1.000000
vn 0.000000 0.000000 1.000000
vn 0.000000 0.000000 1.000000
vn 0.000000 0.000000 1.000000
vn 0.000000 0.000000 1.000000
vn -0.000000 -0.000000 -1.000000
vn -0.000000 -0.000000 -1.000000
vn -0.000000 -0.000000 -1.000000
vn -0.000000 -0.000000 -1.000000
vn -0.000000 -0.000000 -1.000000
vn -0.000000 -0.000000 -1.000000
vn -0.000000 -0.000000 -1.000000
vn -0.000000 -0.000000 -1.000000
vn -0.000000 -0.000000 -1.000000
vn -0.000000 -0.000000 -1.000000
vn -0.000000 -0.000000 -1.000000
vn -0.000000 -0.000000 -1.000000
vn -0.000000 -0.000000 -1.000000
vn -0.000000 -0.000000 -1.000000
vn -0.000000 -0.000000 -1.000000
vn -0.000000 -0.000000 -1.000000
vn -0.000000 -0.000000 -1.000000
vn -0.000000 -0.000000 -1.000000
vn -0.000000 -0.000000 -1.000000
vn -0.000000 -0.000000 -1.000000
vn -0.000000 -0.000000 -1.000000
vn -0.000000 -0.000000 -1.000000
vn -0.000000 -0.000000 -1.000000
vn -0.000000 -0.000000 -1.000000
vn 0.707108 -0.707105 0.000000
vn 0.707108 -0.707105 0.000000
vn 0.707108 -0.707105 0.000000
vn 0.707108 -0.707105 0.000000
vn 0.707107 0.707107 -0.000000
vn 0.707107 0.707107 -0.000000
vn 0.707107 0.707107 -0.000000
vn 0.707107 0.707107 -0.000000
vn -0.707108 0.707105 -0.000000
vn -0.707108 0.707105 -0.000000
vn -0.707108 0.707105 -0.000000
vn -0.707108 0.707105 -0.000000
vn -0.707107 -0.707107 0.000000
vn -0.707107 -0.707107 0.000000
vn -0.707107 -0.707107 0.000000
vn -0.707107 -0.707107 0.000000
vn 0.707107 -0.707107 0.000000
vn 0.707107 -0.707107 0.000000
vn 0.707107 -0.707107 0.000000
vn 0.707107 -0.707107 0.000000
vn -0.707107 0.707107 -0.000000
vn -0.707107 0.707107 -0.000000
vn -0.707107 0.707107 -0.000000
vn -0.707107 0.707107 -0.000000
vn 0.707107 0.707107 -0.000000
vn 0.707107 0.707107 -0.000000
vn 0.707107 0.707107 -0.000000
vn 0.707107 0.707107 -0.000000
vn -0.707107 -0.707107 0.000000
vn -0.707107 -0.707107 0.000000
vn -0.707107 -0.707107 0.000000
vn -0.707107 -0.707107 0.000000
vn -0.707107 0.707107 -0.000000
vn -0.707107 0.707107 -0.000000
vn -0.707107 0.707107 -0.000000
vn -0.707107 0.707107 -0.000000
vn 0.707107 -0.707107 0.000000
vn 0.707107 -0.707107 0.000000
vn 0.707107 -0.707107 0.000000
vn 0.707107 -0.707107 0.000000
vn -0.707107 -0.707107 0.000000
vn -0.707107 -0.707107 0.000000
vn -0.707107 -0.707107 0.000000
vn -0.707107 -0.707107 0.000000
vn 0.707107 0.707107 -0.000000
vn 0.707107 0.707107 -0.000000
vn 0.707107 0.707107 -0.000000
vn 0.707107 0.707107 -0.000000
vn 0.707107 0.707107 -0.000000
vn 0.707107 0.707107 -0.000000
vn 0.707107 0.707107 -0.000000
vn 0.707107 0.707107 -0.000000
vn -0.707107 0.707107 -0.000000
vn -0.707107 0.707107 -0.000000
vn -0.707107 0.707107 -0.000000
vn -0.707107 0.707107 -0.000000
vn -0.707107 -0.707107 0.000000
vn -0.707107 -0.707107 0.000000
vn -0.707107 -0.707107 0.000000
vn -0.707107 -0.707107 0.000000
vn 0.707107 -0.707107 0.000000
vn 0.707107 -0.707107 0.000000
vn 0.707107 -0.707107 0.000000
vn 0.707107 -0.707107 0.000000
g pPlane7
f 17/1/1 18/2/2 19/3/3 20/4/4
f 21/5/5 22/6/6 23/7/7 24/8/8
f 22/6/9 25/9/10 26/10/11 23/7/12
f 25/9/13 27/11/14 28/12/15 26/10/16
f 27/11/17 21/5/18 24/8/19 28/12/20
f 29/13/21 30/14/22 31/15/23 32/16/24
f 3/17/25 1/18/26 2/19/27 4/20/28
f 5/21/29 9/22/30 10/23/31 6/24/32
f 6/24/33 10/23/34 11/27/35 8/28/36
f 8/28/37 11/27/38 12/26/39 7/25/40
f 7/25/41 12/26/42 9/22/43 5/21/44
f 15/29/45 13/30/46 14/31/47 16/32/48
f 3/33/49 4/34/50 18/35/51 17/36/52
f 4/34/53 2/37/54 19/38/55 18/35/56
f 2/39/57 1/40/58 20/41/59 19/42/60
f 1/43/61 3/44/62 17/45/63 20/46/64
f 5/47/65 6/48/66 22/49/67 21/50/68
f 10/53/69 9/54/70 24/55/71 23/56/72
f 6/48/73 8/51/74 25/52/75 22/49/76
f 11/59/77 10/60/78 23/61/79 26/62/80
f 8/63/81 7/64/82 27/65/83 25/66/84
f 12/67/85 11/68/86 26/69/87 28/70/88
f 7/71/89 5/72/90 21/73/91 27/74/92
f 9/54/93 12/57/94 28/58/95 24/55/96
f 15/75/97 16/76/98 30/77/99 29/78/100
f 16/76/101 14/79/102 31/80/103 30/77/104
f 14/81/105 13/82/106 32/83/107 31/84/108
f 13/85/109 15/86/110 29/87/111 32/88/112
