# This file uses centimeters as units for non-parametric coordinates.

g default
v 0.000000 -0.707107 -0.041545
v 0.707107 0.000000 -0.041545
v -0.707107 0.000000 -0.041545
v 0.000000 0.707107 -0.041545
v 0.000000 -0.620858 -0.041545
v 0.620858 0.000000 -0.041545
v 0.000000 0.620858 -0.041545
v -0.620858 0.000000 -0.041545
v -0.038155 -0.338629 -0.041545
v 0.038155 -0.338629 -0.041545
v -0.038155 0.338629 -0.041545
v 0.038155 0.338629 -0.041545
v -0.038155 -0.258966 -0.041545
v 0.038155 -0.258966 -0.041545
v -0.038155 -0.132305 -0.041545
v 0.038155 -0.132305 -0.041545
v 0.000000 -0.707107 0.041545
v 0.707107 0.000000 0.041545
v 0.620858 0.000000 0.041545
v 0.000000 -0.620858 0.041545
v 0.000000 0.707107 0.041545
v 0.000000 0.620858 0.041545
v -0.707107 0.000000 0.041545
v -0.620858 0.000000 0.041545
v -0.038155 -0.132305 0.041545
v 0.038155 -0.132305 0.041545
v 0.038155 0.338629 0.041545
v -0.038155 0.338629 0.041545
v -0.038155 -0.338629 0.041545
v 0.038155 -0.338629 0.041545
v 0.038155 -0.258966 0.041545
v -0.038155 -0.258966 0.041545
vt 0.249940 0.001992
vt 0.498004 0.250057
vt 0.467747 0.250057
vt 0.249940 0.032250
vt 0.249940 0.498122
vt 0.249940 0.467864
vt 0.001875 0.250057
vt 0.032132 0.250057
vt 0.203425 0.501878
vt 0.230196 0.501878
vt 0.230196 0.667090
vt 0.203425 0.667090
vt 0.069925 0.534784
vt 0.096695 0.534784
vt 0.096695 0.562731
vt 0.069925 0.562731
vt 0.691196 0.998008
vt 0.691196 0.967750
vt 0.909003 0.749943
vt 0.939260 0.749943
vt 0.691196 0.532136
vt 0.691196 0.501878
vt 0.473388 0.749943
vt 0.443131 0.749943
vt 0.235970 0.667090
vt 0.235970 0.501878
vt 0.262741 0.501878
vt 0.262741 0.667090
vt 0.102941 0.698793
vt 0.102941 0.670846
vt 0.129711 0.670846
vt 0.129711 0.698793
vt 0.408208 0.749943
vt 0.408208 0.501878
vt 0.437357 0.501878
vt 0.437357 0.749943
vt 0.338361 0.719686
vt 0.338361 0.501878
vt 0.367510 0.501878
vt 0.367510 0.719686
vt 0.402433 0.501878
vt 0.402433 0.749943
vt 0.373284 0.749943
vt 0.373284 0.501878
vt 0.338361 0.937493
vt 0.367510 0.937493
vt 0.402433 0.998008
vt 0.373284 0.998008
vt 0.303438 0.719686
vt 0.303438 0.501878
vt 0.332587 0.501878
vt 0.332587 0.719686
vt 0.408208 0.998008
vt 0.437357 0.998008
vt 0.297664 0.501878
vt 0.297664 0.719686
vt 0.268515 0.719686
vt 0.268515 0.501878
vt 0.101034 0.501878
vt 0.127805 0.501878
vt 0.127805 0.531027
vt 0.101034 0.531027
vt 0.197651 0.501878
vt 0.197651 0.667090
vt 0.168502 0.667090
vt 0.168502 0.501878
vt 0.095260 0.531027
vt 0.068489 0.531027
vt 0.068489 0.501878
vt 0.095260 0.501878
vt 0.133579 0.667090
vt 0.133579 0.501878
vt 0.162728 0.501878
vt 0.162728 0.667090
vt 0.035944 0.501878
vt 0.062715 0.501878
vt 0.062715 0.531027
vt 0.035944 0.531027
vt 0.002223 0.501878
vt 0.030170 0.501878
vt 0.030170 0.531027
vt 0.002223 0.531027
vt 0.028646 0.563933
vt 0.001875 0.563933
vt 0.001875 0.534784
vt 0.028646 0.534784
vt 0.063021 0.563933
vt 0.035074 0.563933
vt 0.035074 0.534784
vt 0.063021 0.534784
vn 0.000000 0.000000 1.000000
vn 0.000000 0.000000 1.000000
vn 0.000000 0.000000 1.000000
vn 0.000000 0.000000 1.000000
vn 0.000000 0.000000 1.000000
vn 0.000000 0.000000 1.000000
vn 0.000000 0.000000 1.000000
vn 0.000000 0.000000 1.000000
vn 0.000000 0.000000 1.000000
vn 0.000000 0.000000 1.000000
vn 0.000000 0.000000 1.000000
vn 0.000000 0.000000 1.000000
vn 0.000000 0.000000 1.000000
vn 0.000000 0.000000 1.000000
vn 0.000000 0.000000 1.000000
vn 0.000000 0.000000 1.000000
vn 0.000000 0.000000 1.000000
vn 0.000000 0.000000 1.000000
vn 0.000000 0.000000 1.000000
vn 0.000000 0.000000 1.000000
vn 0.000000 0.000000 1.000000
vn 0.000000 0.000000 1.000000
vn 0.000000 0.000000 1.000000
vn 0.000000 0.000000 1.000000
vn 0.000000 0.000000 -1.000000
vn 0.000000 0.000000 -1.000000
vn 0.000000 0.000000 -1.000000
vn 0.000000 0.000000 -1.000000
vn 0.000000 0.000000 -1.000000
vn 0.000000 0.000000 -1.000000
vn 0.000000 0.000000 -1.000000
vn 0.000000 0.000000 -1.000000
vn 0.000000 0.000000 -1.000000
vn 0.000000 0.000000 -1.000000
vn 0.000000 0.000000 -1.000000
vn 0.000000 0.000000 -1.000000
vn 0.000000 0.000000 -1.000000
vn 0.000000 0.000000 -1.000000
vn 0.000000 0.000000 -1.000000
vn 0.000000 0.000000 -1.000000
vn 0.000000 0.000000 -1.000000
vn 0.000000 0.000000 -1.000000
vn 0.000000 0.000000 -1.000000
vn 0.000000 0.000000 -1.000000
vn 0.000000 0.000000 -1.000000
vn 0.000000 0.000000 -1.000000
vn 0.000000 0.000000 -1.000000
vn 0.000000 0.000000 -1.000000
vn 0.707107 -0.707107 0.000000
vn 0.707107 -0.707107 0.000000
vn 0.707107 -0.707107 0.000000
vn 0.707107 -0.707107 0.000000
vn -0.707107 0.707107 0.000000
vn -0.707107 0.707107 0.000000
vn -0.707107 0.707107 0.000000
vn -0.707107 0.707107 0.000000
vn 0.707107 0.707107 0.000000
vn 0.707107 0.707107 0.000000
vn 0.707107 0.707107 0.000000
vn 0.707107 0.707107 0.000000
vn -0.707107 -0.707107 0.000000
vn -0.707107 -0.707107 0.000000
vn -0.707107 -0.707107 0.000000
vn -0.707107 -0.707107 0.000000
vn -0.707107 0.707107 0.000000
vn -0.707107 0.707107 0.000000
vn -0.707107 0.707107 0.000000
vn -0.707107 0.707107 0.000000
vn 0.707107 -0.707107 0.000000
vn 0.707107 -0.707107 0.000000
vn 0.707107 -0.707107 0.000000
vn 0.707107 -0.707107 0.000000
vn -0.707107 -0.707107 0.000000
vn -0.707107 -0.707107 0.000000
vn -0.707107 -0.707107 0.000000
vn -0.707107 -0.707107 0.000000
vn 0.707107 0.707107 0.000000
vn 0.707107 0.707107 0.000000
vn 0.707107 0.707107 0.000000
vn 0.707107 0.707107 0.000000
vn 0.000000 -1.000000 0.000000
vn 0.000000 -1.000000 0.000000
vn 0.000000 -1.000000 0.000000
vn 0.000000 -1.000000 0.000000
vn 1.000000 0.000000 0.000000
vn 1.000000 0.000000 0.000000
vn 1.000000 0.000000 0.000000
vn 1.000000 0.000000 0.000000
vn 0.000000 1.000000 0.000000
vn 0.000000 1.000000 0.000000
vn 0.000000 1.000000 0.000000
vn 0.000000 1.000000 0.000000
vn -1.000000 0.000000 0.000000
vn -1.000000 0.000000 0.000000
vn -1.000000 0.000000 0.000000
vn -1.000000 0.000000 0.000000
vn 0.000000 -1.000000 0.000000
vn 0.000000 -1.000000 0.000000
vn 0.000000 -1.000000 0.000000
vn 0.000000 -1.000000 0.000000
vn 1.000000 0.000000 0.000000
vn 1.000000 0.000000 0.000000
vn 1.000000 0.000000 0.000000
vn 1.000000 0.000000 0.000000
vn 0.000000 1.000000 0.000000
vn 0.000000 1.000000 0.000000
vn 0.000000 1.000000 0.000000
vn 0.000000 1.000000 0.000000
vn -1.000000 0.000000 0.000000
vn -1.000000 0.000000 0.000000
vn -1.000000 0.000000 0.000000
vn -1.000000 0.000000 0.000000
g warning:pPlane5
f 17/1/1 18/2/2 19/3/3 20/4/4
f 18/2/5 21/5/6 22/6/7 19/3/8
f 21/5/9 23/7/10 24/8/11 22/6/12
f 23/7/13 17/1/14 20/4/15 24/8/16
f 25/9/17 26/10/18 27/11/19 28/12/20
f 29/13/21 30/14/22 31/15/23 32/16/24
f 1/17/25 5/18/26 6/19/27 2/20/28
f 2/20/29 6/19/30 7/21/31 4/22/32
f 4/22/33 7/21/34 8/23/35 3/24/36
f 3/24/37 8/23/38 5/18/39 1/17/40
f 15/25/41 11/26/42 12/27/43 16/28/44
f 9/29/45 13/30/46 14/31/47 10/32/48
f 1/33/49 2/34/50 18/35/51 17/36/52
f 6/37/53 5/38/54 20/39/55 19/40/56
f 2/41/57 4/42/58 21/43/59 18/44/60
f 7/45/61 6/37/62 19/40/63 22/46/64
f 4/42/65 3/47/66 23/48/67 21/43/68
f 8/49/69 7/50/70 22/51/71 24/52/72
f 3/53/73 1/33/74 17/36/75 23/54/76
f 5/55/77 8/56/78 24/57/79 20/58/80
f 15/59/81 16/60/82 26/61/83 25/62/84
f 16/63/85 12/64/86 27/65/87 26/66/88
f 12/67/89 11/68/90 28/69/91 27/70/92
f 11/71/93 15/72/94 25/73/95 28/74/96
f 9/75/97 10/76/98 30/77/99 29/78/100
f 10/79/101 14/80/102 31/81/103 30/82/104
f 14/83/105 13/84/106 32/85/107 31/86/108
f 13/87/109 9/88/110 29/89/111 32/90/112
