<?xml version="1.0" encoding="utf-8"?>
<!-- Generator: Adobe Illustrator 19.0.0, SVG Export Plug-In . SVG Version: 6.00 Build 0)  -->
<svg version="1.1" id="Ebene_1" xmlns="http://www.w3.org/2000/svg" xmlns:xlink="http://www.w3.org/1999/xlink" x="0px" y="0px"
	 viewBox="94 -4 800 800" style="enable-background:new 94 -4 800 800;" xml:space="preserve">
<style type="text/css">
	.st0{fill:#FFFFFF;}
</style>
<g id="bg">
</g>
<g id="Ebene_4">
</g>
<g id="logos">
	<path id="XMLID_625_" class="st0" d="M589.5,271.6c2.4,0.3,4.9,0.4,7.3,0.4c23.8,0,49.6-13.8,68.9-36.9
		c20.4-24.4,29.3-53.5,24.5-80c-0.8-4.3-4.5-7.2-9.1-6.9c-43.3,4-101.8,46.3-99.1,115.4C582.3,267.7,585.4,271.1,589.5,271.6z
		 M784.2,509.2c-41.9-26.1-59.7-52.8-59.7-89.2c0-29.4,15.9-56,47.3-78.8c1.9-1.4,3.2-3.6,3.4-6s-0.5-4.7-2.1-6.5
		c-28.7-31.7-58.9-47.1-92.2-47.1c-23,0-43.2,7.4-59.4,13.4c-10.4,3.8-19.4,7.2-25.6,7.2c-5.3,0-14.7-3.2-24.7-6.6
		c-17.5-5.9-39.2-13.3-62.6-13.3c-44.7,0-78.3,26.6-102.7,81.5c-44.2,99.2,47,233.1,48,234.4c22.1,30.7,45.4,45.6,71.3,45.6
		c15.8,0,30.5-5.5,43.5-10.3c11.1-4.1,21.5-8,30.9-8c10.5,0,21.4,4.1,32.9,8.5c13.1,5,26.6,10.1,41.7,10.1c40,0,75-38.3,113.3-124.1
		C789.1,516,787.7,511.5,784.2,509.2z"/>
</g>
<g id="grid">
</g>
</svg>
