<?xml version="1.0" encoding="UTF-8" standalone="no"?>
<svg xmlns="http://www.w3.org/2000/svg" viewBox="0 0 369.878 500">
  <path fill="#fff" d="m 260.77769,404.27248 c -1.21114,-1.40002 -6.59412,-7.99539 -8.89027,-10.92974 -2.11792,-2.70592 -5.62144,-1.59456 -5.62144,-1.59456 l -8.98941,2.36203 c 0,0 -2.28171,0.49513 -3.69993,0.77061 -26.48001,5.13322 -53.19284,7.87743 -80.19622,6.70959 -10.44528,-0.4512 -20.87865,-1.46027 -30.75916,-5.24994 -3.66793,-1.40631 -7.87051,-2.72161 -6.80496,-8.48864 -6.17305,2.0081 -11.70036,4.55589 -16.341591,8.64991 -4.59543,4.05387 -4.46176,8.17676 0.26419,11.96517 1.657941,1.32912 3.537401,2.46244 5.466441,3.36107 8.13597,3.79407 16.81098,5.89003 25.60084,7.32017 32.23261,5.2443 64.55181,5.9258 96.85784,0.77752 11.64513,-1.85624 23.09134,-4.70399 34.29657,-10.63355 -0.0282,-0.0176 -0.0565,-0.0351 -0.0854,-0.0527 1.8713,-1.33037 0.0195,-3.67546 -1.09755,-4.96693 z m 12.75962,-49.99367 c -1.21113,-1.40003 -10.4114,-12.67554 -12.70754,-15.60989 -2.11792,-2.70592 -5.62144,-1.59456 -5.62144,-1.59456 l -2.36517,0.51081 0.004,0.009 -15.10347,3.22803 c -32.32234,6.2063 -65.02309,9.82968 -98.05517,9.02016 -8.6198,-0.21273 -17.19692,-0.95636 -25.45023,-3.66479 -11.01321,-3.61334 -12.96044,-4.40089 -7.57182,-15.68143 -8.255821,3.73132 -15.592311,7.23358 -21.493001,12.97488 -5.51288,5.36352 -4.88974,14.14773 1.49729,18.13256 3.94467,2.46119 8.29913,3.96852 12.76967,5.09934 17.991371,4.54899 36.396291,5.7413 54.831331,6.29164 28.16305,0.84153 56.24328,-0.53591 84.14151,-4.59668 11.82147,-1.72132 23.56199,-3.98358 35.4186,-8.62418 -0.0395,-0.0282 -0.0922,-0.0722 -0.13932,-0.10857 l 0.0797,0.027 c 3.21611,-1.17725 1.01974,-3.96224 -0.23533,-5.4131 z m -9.95894,110.41067 c 19.40394,-2.24029 38.68741,-5.30077 56.95615,-12.6906 7.30448,-2.95505 14.39812,-6.3864 18.81093,-13.4085 1.49541,-2.38086 2.26351,-4.59981 2.33882,-6.70079 l 0.009,10e-4 c 0.78065,-7.61574 -5.88689,-13.78062 -5.88689,-13.78062 1.73764,8.00481 -5.23613,12.25697 -5.23613,12.25697 -5.03282,2.69714 -10.36308,4.62931 -15.83643,6.16049 -21.27964,5.9509 -43.13975,8.47233 -65.05697,10.08195 -54.08519,3.97103 -108.18545,4.13168 -162.241771,-0.7863 -14.85308,-1.35171 -29.70051,-2.86343 -43.98756,-7.46325 -9.69538,-3.12135 1.95602,-8.59218 1.95602,-8.59218 8.79739,-3.91455 16.06171,-5.63588 25.34606,-7.95022 2.8308,-0.66267 9.67468,-2.18381 14.13644,-2.52394 -2.33505,0.15124 -9.55921,0.63444 -15.33628,1.18541 -0.006,-0.001 -0.0126,-0.001 -0.0176,-0.003 -0.14622,0.0144 -0.29369,0.0314 -0.44116,0.0458 -0.64636,0.064 -1.27326,0.12739 -1.86942,0.1914 l 0.008,0.006 c -17.27912,1.83553 -34.41266,4.46176 -51.06425,9.65522 -4.85208,1.51361 -9.6037605,3.34224 -13.5032505,6.74473 -3.54681997,3.09499 -3.56124997,6.24144 0.0276,9.31133 1.6115,1.37806 3.49912,2.52582 5.42816,3.41943 6.0268305,2.79189 12.5111305,4.20447 18.9276505,5.7049 32.62293,7.62829 65.8734,10.37563 99.206071,12.05742 45.83062,2.31183 91.65372,2.34886 137.32683,-2.92305 z M 85.650779,424.3686 c 0,0 -0.27486,0.0169 -0.76559,0.0489 0.26294,-0.0201 0.52085,-0.037 0.76559,-0.0489 z M 281.31119,286.90435 c -0.0151,0.002 -0.0282,0.004 -0.0389,0.006 0.009,-0.002 0.0257,-0.004 0.0389,-0.006 z m -0.0389,0.005 c -0.0483,0.007 -0.0395,0.006 0,0 l 0,0 z M 53.222379,311.93913 c 14.96918,5.07612 30.55145,6.93801 46.16887,8.19433 48.385301,3.89008 96.731711,3.33471 144.052091,-8.30728 26.7191,-6.57404 33.15257,-15.35887 38.44707,-25.00406 0,0 -17.53077,7.03088 -31.43313,8.70702 -37.27798,4.4944 -74.75739,6.66001 -112.32465,6.82631 -16.6152,0.0722 -33.24231,0.0828 -49.647281,-3.09123 -2.29301,-0.44366 -4.45423,-2.01877 -5.01336,-5.17338 -0.62628,-3.53301 3.42884,-6.00047 6.64557,-7.74752 10.332331,-5.60889 21.503681,-6.53576 32.683811,-9.97213 l 17.98698,-5.05792 -16.99485,2.50574 c -4.85272,0.75241 -9.85729,1.46404 -14.83175,2.36831 -18.133191,3.29706 -36.304041,6.47238 -53.681681,12.88702 -4.32308,1.59519 -8.62796,3.3642 -12.0091,6.67005 -3.15775,3.08934 -3.07178,8.22947 0.18763,11.17009 2.80633,2.53335 6.27345,3.8405 9.76378,5.02465 z M 281.85276,286.82777 c -0.0176,0.003 -0.0408,0.006 -0.069,0.01 0.0226,-0.004 0.0433,-0.007 0.069,-0.01 z m 0.0376,-0.006 c -0.0138,0.002 -0.0238,0.004 -0.0383,0.006 0.0226,-0.003 0.0383,-0.006 0.0383,-0.006 z m -0.36585,0.0515 c -0.0992,0.0138 -0.16881,0.0239 -0.21337,0.0308 0.054,-0.008 0.13053,-0.0188 0.21337,-0.0308 z m 0.25854,-0.0364 c -0.0408,0.006 -0.086,0.0119 -0.12111,0.0169 0.0446,-0.006 0.086,-0.0119 0.12111,-0.0169 z m -0.12111,0.0176 c -0.0439,0.006 -0.091,0.0132 -0.13743,0.0188 0.0414,-0.006 0.0847,-0.0119 0.13743,-0.0188 z M 180.81742,183.93936 c -0.49826,10.93225 4.08462,20.31261 9.52847,29.33591 5.78397,9.58557 12.63412,18.49528 17.95434,28.38709 7.74878,14.40627 8.94172,25.15403 2.95129,35.62065 l -1.74956,2.39781 c -2.7191,3.7652 -6.84262,9.19085 -6.84262,9.19085 3.23556,-1.50608 10.39822,-6.68072 10.39822,-6.68072 0,0 20.24673,-15.60926 23.72075,-19.98944 4.11787,-5.19158 7.41054,-10.88707 8.32297,-17.70082 1.41948,-10.59966 -3.28388,-19.08893 -9.10111,-27.22239 -4.81945,-6.73845 -10.12525,-13.13175 -14.17472,-20.41302 -7.17584,-12.90082 -5.84735,-25.22683 2.42542,-37.07779 12.13774,-17.38266 29.19284,-29.19346 46.49518,-40.65535 8.27339,-5.47962 16.83796,-10.52122 25.27138,-15.7605 -12.1208,3.94907 -27.82293,8.75221 -39.35322,14.03164 -20.1206,9.21344 -39.92428,19.02429 -56.76915,33.71672 -10.0192,8.73903 -18.42814,18.60761 -19.07764,32.81936 z m 139.3456,94.91939 c 19.51063,1.6592 25.93845,14.31089 20.65651,33.18206 -4.23522,15.1292 -11.9338,26.47625 -23.58395,36.39818 -8.79676,7.49149 -17.47993,13.18886 -27.6284,18.63836 14.54433,-2.13362 28.48247,-3.60581 41.47241,-10.40576 14.61336,-7.649 27.5556,-19.03308 33.84725,-34.95171 9.06346,-22.93382 -2.82892,-55.21726 -27.34852,-56.29034 -15.01499,0.13178 -26.69777,6.35879 -37.75804,13.91555 6.44037,-1.09379 13.83962,-1.03982 20.34274,-0.48634 z m 49.51612,162.98414 c -6.57403,9.52532 -15.69209,14.2588 -25.26699,18.18716 -24.35832,9.99535 -50.06082,14.65227 -75.94342,18.22168 -37.68901,5.19785 -75.60142,5.4815 -113.63996,4.42411 -29.95278,-0.83211 -60.688091,-3.43951 -88.787141,-11.51147 1.42952,4.60735 10.52812,10.58146 12.5356,11.72734 0,0 18.4865,10.39257 34.910291,12.51991 40.72501,4.8866 81.59248,5.71996 122.51014,3.21234 32.25834,-1.97673 64.3259,-5.41247 95.27081,-15.50132 11.30438,-3.6855 22.22534,-8.28218 30.89157,-16.78714 5.23677,-5.13824 8.58842,-16.05229 7.5191,-24.49261 z M 188.51161,273.13816 c -1.33916,-3.81164 -2.48252,-5.79841 -4.768,-8.61666 -11.91999,-14.70121 -23.04741,-29.91701 -30.23768,-47.61219 -6.02118,-14.81542 -8.39514,-29.91512 -2.45616,-45.34428 4.34504,-11.28869 11.88171,-20.44189 20.86547,-28.25154 13.89421,-12.07624 28.36136,-23.49358 42.22231,-35.60559 17.55147,-15.339419 30.73343,-33.402329 33.33957,-57.512779 1.83616,-16.9823 -3.41252,-33.14818 -9.55419,-50.195110146421 0,4.139830046421 -0.1299,6.705190046421 -0.49261,9.835320046421 -0.84027,11.9300301 -2.87975,17.5778301 -5.6547,26.6732901 -4.50757,14.77464 -12.29086,26.92494 -22.28496,38.08436 -13.15936,14.69368 -28.68641,26.790009 -43.77356,39.364519 -13.79694,11.49829 -27.67672,22.90495 -38.59831,37.39846 -13.3037,17.65313 -16.30142,36.85941 -6.39581,56.61477 14.05988,28.03755 43.31421,46.87986 67.78863,65.16743 z"/>
</svg>
