<?xml version="1.0" encoding="utf-8"?>
<!-- Generator: Adobe Illustrator 19.0.0, SVG Export Plug-In . SVG Version: 6.00 Build 0)  -->
<svg version="1.1" xmlns="http://www.w3.org/2000/svg" xmlns:xlink="http://www.w3.org/1999/xlink" x="0px" y="0px"
	 viewBox="102 20.9 800 800">
	<path fill="#fff" d="M713.6,342.3c-22.1-0.3-42.1,8.4-56.7,22.6c-3.1,3-7.7,3.6-11.5,1.6l-173-91.7
		c-3.7-2-5.9-6.1-5.1-10.3c0.8-4.6,1.3-9.3,1.3-14.2c0-44.8-36.9-81-81.9-80c-43.5,1-78.5,37.3-78.1,80.8
		c0.4,35.5,23.9,65.5,56.2,75.5c4.1,1.3,6.8,5.1,6.8,9.4v172.8c0,4.2-2.7,8-6.7,9.3c-31.9,10.4-55.1,40.2-55.3,75.6
		c-0.3,43.4,34.7,79.4,78.1,80.5c45.1,1.1,81.9-35.1,81.9-80c0-5-0.5-9.9-1.4-14.7c-0.8-4.2,1.3-8.5,5.1-10.5l172-91.2
		c3.8-2,8.5-1.3,11.6,1.7c14.4,14,34,22.6,55.7,22.6c44.8,0,81-36.9,80-81.9C791.6,377.5,756.4,342.8,713.6,342.3z M348.6,250.3
		c0-22.1,17.9-40,40-40s40,17.9,40,40s-17.9,40-40,40S348.6,272.4,348.6,250.3z M389.6,634.3c-22.1,0-40-17.9-40-40s17.9-40,40-40
		s40,17.9,40,40S411.7,634.3,389.6,634.3z M629.7,446.6l-173.9,92.2c-3.3,1.8-7.4,1.1-10.1-1.5c-9.1-9-20.4-15.8-32.9-19.6
		c-3.6-1.1-6.2-4.4-6.2-8.2V334.7c0-3.8,2.5-7,6.1-8.2c12.4-3.9,23.5-10.8,32.5-19.7c2.7-2.7,6.7-3.3,10.1-1.6l174.5,92.5
		c3.4,1.8,5.1,5.6,4.4,9.3c-1,4.9-1.5,10-1.5,15.2s0.5,10.2,1.4,15.1C634.8,441.1,633,444.8,629.7,446.6z M712.6,462.3
		c-22.1,0-40-17.9-40-40s17.9-40,40-40s40,17.9,40,40S734.7,462.3,712.6,462.3z"/>
</svg>
