# This file uses centimeters as units for non-parametric coordinates.

mtllib cube.mtl
g default
v -0.479909 0.000000 0.500000
v 0.479256 0.000000 0.500000
v 0.479256 0.979087 0.500000
v -0.479909 0.979087 0.500000
v -0.479909 1.000000 0.480000
v 0.479256 1.000000 0.480000
v 0.479256 1.000000 -0.480000
v -0.479909 1.000000 -0.480000
v -0.479909 0.979087 -0.500000
v 0.479256 0.979087 -0.500000
v 0.479256 0.000000 -0.500000
v -0.479909 0.000000 -0.500000
v 0.500000 0.000000 -0.480000
v 0.500000 0.000000 0.480000
v 0.500000 0.979087 -0.480000
v 0.500000 0.979087 0.480000
v -0.500000 0.000000 -0.480000
v -0.500000 0.000000 0.480000
v -0.500000 0.979087 0.480000
v -0.500000 0.979087 -0.480000
vt 0.008561 0.001992
vt 0.329112 0.001992
vt 0.329112 0.329201
vt 0.008561 0.329201
vt 0.336045 0.001992
vt 0.336045 0.329201
vt 0.329112 0.336191
vt 0.008561 0.336191
vt 0.001846 0.329201
vt 0.001846 0.001992
vt 0.343430 0.329476
vt 0.343430 0.008925
vt 0.664261 0.008925
vt 0.664261 0.329476
vt 0.343430 0.001992
vt 0.664261 0.001992
vt 0.670945 0.008925
vt 0.670945 0.329476
vt 0.664261 0.336190
vt 0.343430 0.336190
vt 0.597784 0.667374
vt 0.597784 0.346822
vt 0.924994 0.346822
vt 0.924994 0.667374
vt 0.597784 0.339890
vt 0.924994 0.339890
vt 0.924994 0.674088
vt 0.597784 0.674088
vt 0.271267 0.339890
vt 0.592098 0.339890
vt 0.592098 0.667099
vt 0.271267 0.667099
vt 0.001846 0.670799
vt 0.322677 0.670799
vt 0.322677 0.998008
vt 0.001846 0.998008
vn 0.000000 0.000000 1.000000
vn 0.000000 0.000000 1.000000
vn 0.000000 0.000000 1.000000
vn 0.000000 0.000000 1.000000
vn 0.000000 1.000000 0.000000
vn 0.000000 1.000000 0.000000
vn 0.000000 1.000000 0.000000
vn 0.000000 1.000000 0.000000
vn 0.000000 0.000000 -1.000000
vn 0.000000 0.000000 -1.000000
vn 0.000000 0.000000 -1.000000
vn 0.000000 0.000000 -1.000000
vn 1.000000 0.000000 0.000000
vn 1.000000 0.000000 0.000000
vn 1.000000 0.000000 0.000000
vn 1.000000 0.000000 0.000000
vn -1.000000 0.000000 0.000000
vn -1.000000 0.000000 0.000000
vn -1.000000 0.000000 0.000000
vn -1.000000 0.000000 0.000000
vn 0.000000 0.691150 0.722711
vn 0.000000 0.691150 0.722711
vn 0.000000 0.691150 0.722711
vn 0.000000 0.691150 0.722711
vn 0.000000 0.691150 -0.722711
vn 0.000000 0.691150 -0.722711
vn 0.000000 0.691150 -0.722711
vn 0.000000 0.691150 -0.722711
vn -0.705503 0.000000 0.708707
vn -0.705503 0.000000 0.708707
vn -0.705503 0.000000 0.708707
vn -0.705503 0.000000 0.708707
vn 0.694084 0.000000 0.719894
vn 0.694084 0.000000 0.719894
vn 0.694084 0.000000 0.719894
vn 0.694084 0.000000 0.719894
vn 0.694085 0.000000 -0.719893
vn 0.694085 0.000000 -0.719893
vn 0.694085 0.000000 -0.719893
vn 0.694085 0.000000 -0.719893
vn -0.705504 0.000000 -0.708706
vn -0.705504 0.000000 -0.708706
vn -0.705504 0.000000 -0.708706
vn -0.705504 0.000000 -0.708706
vn 0.709980 0.704221 0.000000
vn 0.709980 0.704221 0.000000
vn 0.709980 0.704221 0.000000
vn 0.709980 0.704221 0.000000
vn -0.721146 0.692783 0.000000
vn -0.721146 0.692783 0.000000
vn -0.721146 0.692783 0.000000
vn -0.721146 0.692783 0.000000
vn -0.584007 0.561040 0.586660
vn -0.584007 0.561040 0.586660
vn -0.584007 0.561040 0.586660
vn 0.571699 0.567063 0.592958
vn 0.571699 0.567063 0.592958
vn 0.571699 0.567063 0.592958
vn 0.571699 0.567063 -0.592958
vn 0.571699 0.567063 -0.592958
vn 0.571699 0.567063 -0.592958
vn -0.584007 0.561040 -0.586660
vn -0.584007 0.561040 -0.586660
vn -0.584007 0.561040 -0.586660
s off
g pCube1
usemtl lambert2SG
f 1/1/1 2/2/2 3/3/3 4/4/4
f 5/11/5 6/12/6 7/13/7 8/14/8
f 9/21/9 10/22/10 11/23/11 12/24/12
f 14/29/13 13/30/14 15/31/15 16/32/16
f 17/33/17 18/34/18 19/35/19 20/36/20
f 4/4/21 3/3/22 6/7/23 5/8/24
f 8/14/25 7/13/26 10/17/27 9/18/28
f 1/1/29 4/4/30 19/9/31 18/10/32
f 3/3/33 2/2/34 14/5/35 16/6/36
f 11/23/37 10/22/38 15/25/39 13/26/40
f 9/21/41 12/24/42 17/27/43 20/28/44
f 7/13/45 6/12/46 16/15/47 15/16/48
f 5/11/49 8/14/50 20/19/51 19/20/52
f 19/9/53 4/4/54 5/8/55
f 3/3/56 16/6/57 6/7/58
f 15/16/59 10/17/60 7/13/61
f 9/18/62 20/19/63 8/14/64
