# This file uses centimeters as units for non-parametric coordinates.

mtllib Error.mtl
g default
v -0.000000 -0.070350 0.099489
v 0.099489 -0.070350 -0.000000
v -0.000000 0.070350 0.099489
v 0.099489 0.070350 -0.000000
v -0.099490 0.070350 -0.000000
v -0.000000 0.070350 -0.099490
v -0.099490 -0.070350 -0.000000
v -0.000000 -0.070350 -0.099490
v 0.453891 -0.070350 0.553381
v 0.553380 -0.070350 0.453891
v 0.553380 0.070350 0.453891
v 0.453891 0.070350 0.553381
v -0.553381 0.070350 -0.453892
v -0.453892 0.070350 -0.553381
v -0.453892 -0.070350 -0.553381
v -0.553381 -0.070350 -0.453892
v 0.453891 -0.070350 -0.553381
v 0.553380 -0.070350 -0.453892
v 0.453891 0.070350 -0.553381
v 0.553380 0.070350 -0.453892
v -0.553381 -0.070350 0.453891
v -0.453892 -0.070350 0.553381
v -0.453892 0.070350 0.553381
v -0.553381 0.070350 0.453891
v 0.832898 0.000000 -0.165674
v 0.784573 0.000000 -0.324981
v 0.706097 0.000000 -0.471799
v 0.600487 0.000000 -0.600487
v 0.471799 0.000000 -0.706098
v 0.324981 0.000000 -0.784574
v 0.165674 0.000000 -0.832899
v 0.000000 0.000000 -0.849217
v -0.165674 0.000000 -0.832899
v -0.324981 0.000000 -0.784574
v -0.471799 0.000000 -0.706098
v -0.600487 0.000000 -0.600487
v -0.706098 0.000000 -0.471800
v -0.784574 0.000000 -0.324982
v -0.832899 0.000000 -0.165675
v -0.849217 0.000000 -0.000001
v -0.832900 0.000000 0.165673
v -0.784574 0.000000 0.324981
v -0.706098 0.000000 0.471799
v -0.600488 0.000000 0.600487
v -0.471800 0.000000 0.706098
v -0.324982 0.000000 0.784574
v -0.165675 0.000000 0.832899
v -0.000001 0.000000 0.849217
v 0.165674 0.000000 0.832899
v 0.324981 0.000000 0.784574
v 0.471799 0.000000 0.706098
v 0.600487 0.000000 0.600487
v 0.706098 0.000000 0.471800
v 0.784574 0.000000 0.324981
v 0.832899 0.000000 0.165674
v 0.849217 0.000000 -0.000000
v 0.979028 0.000000 -0.194741
v 0.922224 0.000000 -0.381998
v 0.829980 0.000000 -0.554575
v 0.705840 0.000000 -0.705840
v 0.554575 0.000000 -0.829980
v 0.381998 0.000000 -0.922225
v 0.194741 0.000000 -0.979029
v 0.000000 0.000000 -0.998209
v -0.194741 0.000000 -0.979029
v -0.381998 0.000000 -0.922225
v -0.554575 0.000000 -0.829981
v -0.705840 0.000000 -0.705841
v -0.829981 0.000000 -0.554576
v -0.922225 0.000000 -0.381999
v -0.979029 0.000000 -0.194742
v -0.998209 0.000000 -0.000001
v -0.979029 0.000000 0.194740
v -0.922226 0.000000 0.381998
v -0.829981 0.000000 0.554575
v -0.705841 0.000000 0.705840
v -0.554576 0.000000 0.829980
v -0.381999 0.000000 0.922225
v -0.194742 0.000000 0.979029
v -0.000001 0.000000 0.998209
v 0.194740 0.000000 0.979029
v 0.381998 0.000000 0.922225
v 0.554575 0.000000 0.829981
v 0.705840 0.000000 0.705840
v 0.829980 0.000000 0.554575
v 0.922225 0.000000 0.381998
v 0.979029 0.000000 0.194741
v 0.998209 0.000000 -0.000000
v 0.832898 -0.113733 -0.165674
v 0.784573 -0.113733 -0.324981
v 0.922224 -0.113733 -0.381998
v 0.979028 -0.113733 -0.194741
v 0.706097 -0.113733 -0.471799
v 0.829980 -0.113733 -0.554575
v 0.600487 -0.113733 -0.600487
v 0.705840 -0.113733 -0.705840
v 0.471799 -0.113733 -0.706098
v 0.554575 -0.113733 -0.829980
v 0.324981 -0.113733 -0.784574
v 0.381998 -0.113733 -0.922225
v 0.165674 -0.113733 -0.832899
v 0.194741 -0.113733 -0.979029
v 0.000000 -0.113733 -0.849217
v 0.000000 -0.113733 -0.998209
v -0.165674 -0.113733 -0.832899
v -0.194741 -0.113733 -0.979029
v -0.324981 -0.113733 -0.784574
v -0.381998 -0.113733 -0.922225
v -0.471799 -0.113733 -0.706098
v -0.554575 -0.113733 -0.829981
v -0.600487 -0.113733 -0.600487
v -0.705840 -0.113733 -0.705841
v -0.706098 -0.113733 -0.471800
v -0.829981 -0.113733 -0.554576
v -0.784574 -0.113733 -0.324982
v -0.922225 -0.113733 -0.381999
v -0.832899 -0.113733 -0.165675
v -0.979029 -0.113733 -0.194742
v -0.849217 -0.113733 -0.000001
v -0.998209 -0.113733 -0.000001
v -0.832900 -0.113733 0.165673
v -0.979029 -0.113733 0.194740
v -0.784574 -0.113733 0.324981
v -0.922226 -0.113733 0.381998
v -0.706098 -0.113733 0.471799
v -0.829981 -0.113733 0.554575
v -0.600488 -0.113733 0.600487
v -0.705841 -0.113733 0.705840
v -0.471800 -0.113733 0.706098
v -0.554576 -0.113733 0.829980
v -0.324982 -0.113733 0.784574
v -0.381999 -0.113733 0.922225
v -0.165675 -0.113733 0.832899
v -0.194742 -0.113733 0.979029
v -0.000001 -0.113733 0.849217
v -0.000001 -0.113733 0.998209
v 0.165674 -0.113733 0.832899
v 0.194740 -0.113733 0.979029
v 0.324981 -0.113733 0.784574
v 0.381998 -0.113733 0.922225
v 0.471799 -0.113733 0.706098
v 0.554575 -0.113733 0.829981
v 0.600487 -0.113733 0.600487
v 0.705840 -0.113733 0.705840
v 0.706098 -0.113733 0.471800
v 0.829980 -0.113733 0.554575
v 0.784574 -0.113733 0.324981
v 0.922225 -0.113733 0.381998
v 0.832899 -0.113733 0.165674
v 0.979029 -0.113733 0.194741
v 0.849217 -0.113733 -0.000000
v 0.998209 -0.113733 -0.000000
vt 0.375000 0.000000
vt 0.625000 0.000000
vt 0.375000 0.250000
vt 0.625000 0.250000
vt 0.375000 0.500000
vt 0.625000 0.500000
vt 0.375000 0.750000
vt 0.625000 0.750000
vt 0.375000 1.000000
vt 0.625000 1.000000
vt 0.875000 0.000000
vt 0.875000 0.250000
vt 0.125000 0.000000
vt 0.125000 0.250000
vt 0.375000 0.000000
vt 0.625000 0.000000
vt 0.625000 0.250000
vt 0.375000 0.250000
vt 0.375000 0.500000
vt 0.625000 0.500000
vt 0.625000 0.750000
vt 0.375000 0.750000
vt 0.625000 0.000000
vt 0.875000 0.000000
vt 0.875000 0.250000
vt 0.625000 0.250000
vt 0.125000 0.000000
vt 0.375000 0.000000
vt 0.375000 0.250000
vt 0.125000 0.250000
vt 0.653248 0.874233
vt 0.644356 0.903544
vt 0.644356 0.903544
vt 0.653248 0.874233
vt 0.629917 0.930558
vt 0.629917 0.930558
vt 0.610485 0.954235
vt 0.610485 0.954235
vt 0.586808 0.973667
vt 0.586808 0.973667
vt 0.559794 0.988106
vt 0.559794 0.988106
vt 0.530483 0.996998
vt 0.530483 0.996998
vt 0.500000 1.000000
vt 0.500000 1.000000
vt 0.469517 0.996998
vt 0.469517 0.996998
vt 0.440206 0.988106
vt 0.440206 0.988106
vt 0.413192 0.973667
vt 0.413192 0.973667
vt 0.389515 0.954235
vt 0.389515 0.954235
vt 0.370083 0.930558
vt 0.370083 0.930558
vt 0.355644 0.903544
vt 0.355644 0.903544
vt 0.346752 0.874233
vt 0.346752 0.874233
vt 0.343750 0.843750
vt 0.343750 0.843750
vt 0.346752 0.813267
vt 0.346752 0.813267
vt 0.355644 0.783956
vt 0.355644 0.783956
vt 0.370083 0.756942
vt 0.370083 0.756942
vt 0.389515 0.733265
vt 0.389515 0.733265
vt 0.413192 0.713833
vt 0.413192 0.713833
vt 0.440206 0.699394
vt 0.440206 0.699394
vt 0.469517 0.690502
vt 0.469517 0.690502
vt 0.500000 0.687500
vt 0.500000 0.687500
vt 0.530483 0.690502
vt 0.530483 0.690502
vt 0.559794 0.699394
vt 0.559794 0.699394
vt 0.586808 0.713833
vt 0.586808 0.713833
vt 0.610485 0.733265
vt 0.610485 0.733265
vt 0.629917 0.756942
vt 0.629917 0.756942
vt 0.644356 0.783956
vt 0.644356 0.783956
vt 0.653248 0.813267
vt 0.653248 0.813267
vt 0.656250 0.843750
vt 0.656250 0.843750
vt 0.653248 0.874233
vt 0.653248 0.874233
vt 0.644356 0.903544
vt 0.644356 0.903544
vt 0.629917 0.930558
vt 0.629917 0.930558
vt 0.610485 0.954235
vt 0.610485 0.954235
vt 0.586808 0.973667
vt 0.586808 0.973667
vt 0.559794 0.988106
vt 0.559794 0.988106
vt 0.530483 0.996998
vt 0.530483 0.996998
vt 0.500000 1.000000
vt 0.500000 1.000000
vt 0.469517 0.996998
vt 0.469517 0.996998
vt 0.440206 0.988106
vt 0.440206 0.988106
vt 0.413192 0.973667
vt 0.413192 0.973667
vt 0.389515 0.954235
vt 0.389515 0.954235
vt 0.370083 0.930558
vt 0.370083 0.930558
vt 0.355644 0.903544
vt 0.355644 0.903544
vt 0.346752 0.874233
vt 0.346752 0.874233
vt 0.343750 0.843750
vt 0.343750 0.843750
vt 0.346752 0.813267
vt 0.346752 0.813267
vt 0.355644 0.783956
vt 0.355644 0.783956
vt 0.370083 0.756942
vt 0.370083 0.756942
vt 0.389515 0.733265
vt 0.389515 0.733265
vt 0.413192 0.713833
vt 0.413192 0.713833
vt 0.440206 0.699394
vt 0.440206 0.699394
vt 0.469517 0.690502
vt 0.469517 0.690502
vt 0.500000 0.687500
vt 0.500000 0.687500
vt 0.530483 0.690502
vt 0.530483 0.690502
vt 0.559794 0.699394
vt 0.559794 0.699394
vt 0.586808 0.713833
vt 0.586808 0.713833
vt 0.610485 0.733265
vt 0.610485 0.733265
vt 0.629917 0.756942
vt 0.629917 0.756942
vt 0.644356 0.783956
vt 0.644356 0.783956
vt 0.653248 0.813267
vt 0.653248 0.813267
vt 0.656250 0.843750
vt 0.656250 0.843750
vt 0.653248 0.874233
vt 0.644356 0.903544
vt 0.644356 0.903544
vt 0.653248 0.874233
vt 0.629917 0.930558
vt 0.629917 0.930558
vt 0.610485 0.954235
vt 0.610485 0.954235
vt 0.586808 0.973667
vt 0.586808 0.973667
vt 0.559794 0.988106
vt 0.559794 0.988106
vt 0.530483 0.996998
vt 0.530483 0.996998
vt 0.500000 1.000000
vt 0.500000 1.000000
vt 0.469517 0.996998
vt 0.469517 0.996998
vt 0.440206 0.988106
vt 0.440206 0.988106
vt 0.413192 0.973667
vt 0.413192 0.973667
vt 0.389515 0.954235
vt 0.389515 0.954235
vt 0.370083 0.930558
vt 0.370083 0.930558
vt 0.355644 0.903544
vt 0.355644 0.903544
vt 0.346752 0.874233
vt 0.346752 0.874233
vt 0.343750 0.843750
vt 0.343750 0.843750
vt 0.346752 0.813267
vt 0.346752 0.813267
vt 0.355644 0.783956
vt 0.355644 0.783956
vt 0.370083 0.756942
vt 0.370083 0.756942
vt 0.389515 0.733265
vt 0.389515 0.733265
vt 0.413192 0.713833
vt 0.413192 0.713833
vt 0.440206 0.699394
vt 0.440206 0.699394
vt 0.469517 0.690502
vt 0.469517 0.690502
vt 0.500000 0.687500
vt 0.500000 0.687500
vt 0.530483 0.690502
vt 0.530483 0.690502
vt 0.559794 0.699394
vt 0.559794 0.699394
vt 0.586808 0.713833
vt 0.586808 0.713833
vt 0.610485 0.733265
vt 0.610485 0.733265
vt 0.629917 0.756942
vt 0.629917 0.756942
vt 0.644356 0.783956
vt 0.644356 0.783956
vt 0.653248 0.813267
vt 0.653248 0.813267
vt 0.656250 0.843750
vt 0.656250 0.843750
vn 0.707107 0.000000 0.707107
vn 0.707107 0.000000 0.707107
vn 0.707107 0.000000 0.707107
vn 0.707107 0.000000 0.707107
vn 0.000000 1.000000 0.000000
vn 0.000000 1.000000 0.000000
vn 0.000000 1.000000 0.000000
vn 0.000000 1.000000 0.000000
vn -0.707106 0.000000 -0.707107
vn -0.707106 0.000000 -0.707107
vn -0.707106 0.000000 -0.707107
vn -0.707106 0.000000 -0.707107
vn 0.000000 -1.000000 0.000000
vn 0.000000 -1.000000 0.000000
vn 0.000000 -1.000000 0.000000
vn 0.000000 -1.000000 0.000000
vn 0.707107 0.000000 -0.707107
vn 0.707107 0.000000 -0.707107
vn 0.707107 0.000000 -0.707107
vn 0.707107 0.000000 -0.707107
vn -0.707106 0.000000 0.707107
vn -0.707106 0.000000 0.707107
vn -0.707106 0.000000 0.707107
vn -0.707106 0.000000 0.707107
vn 0.000000 -1.000000 0.000000
vn 0.000000 -1.000000 0.000000
vn 0.707107 0.000000 -0.707107
vn 0.707107 0.000000 -0.707107
vn 0.707107 0.000000 -0.707107
vn 0.707107 0.000000 -0.707107
vn 0.000000 1.000000 0.000000
vn 0.000000 1.000000 0.000000
vn -0.707107 0.000000 0.707107
vn -0.707107 0.000000 0.707107
vn -0.707107 0.000000 0.707107
vn -0.707107 0.000000 0.707107
vn 0.000000 1.000000 0.000000
vn 0.000000 1.000000 0.000000
vn 0.707107 0.000000 -0.707107
vn 0.707107 0.000000 -0.707107
vn 0.707107 0.000000 -0.707107
vn 0.707107 0.000000 -0.707107
vn 0.000000 -1.000000 0.000000
vn 0.000000 -1.000000 0.000000
vn -0.707107 0.000000 0.707107
vn -0.707107 0.000000 0.707107
vn -0.707107 0.000000 0.707107
vn -0.707107 0.000000 0.707107
vn 0.000000 -1.000000 0.000000
vn 0.000000 -1.000000 0.000000
vn -0.707107 0.000000 -0.707107
vn -0.707107 0.000000 -0.707107
vn -0.707107 0.000000 -0.707107
vn -0.707107 0.000000 -0.707107
vn 0.000000 1.000000 0.000000
vn 0.000000 1.000000 0.000000
vn 0.707107 0.000000 0.707107
vn 0.707107 0.000000 0.707107
vn 0.707107 0.000000 0.707107
vn 0.707107 0.000000 0.707107
vn 0.000000 -1.000000 0.000000
vn 0.000000 -1.000000 0.000000
vn 0.707107 0.000000 0.707107
vn 0.707107 0.000000 0.707107
vn 0.707107 0.000000 0.707107
vn 0.707107 0.000000 0.707107
vn 0.000000 1.000000 0.000000
vn 0.000000 1.000000 0.000000
vn -0.707107 0.000000 -0.707107
vn -0.707107 0.000000 -0.707107
vn -0.707107 0.000000 -0.707107
vn -0.707107 0.000000 -0.707107
vn 0.000000 -1.000000 0.000000
vn 0.000000 -1.000000 0.000000
vn 0.000000 -1.000000 0.000000
vn 0.000000 -1.000000 0.000000
vn 0.000000 -1.000000 0.000000
vn 0.000000 -1.000000 0.000000
vn 0.000000 -1.000000 0.000000
vn 0.000000 -1.000000 0.000000
vn 0.000000 -1.000000 0.000000
vn 0.000000 -1.000000 0.000000
vn 0.000000 -1.000000 0.000000
vn 0.000000 -1.000000 0.000000
vn 0.000000 -1.000000 0.000000
vn 0.000000 -1.000000 0.000000
vn 0.000000 -1.000000 0.000000
vn 0.000000 -1.000000 0.000000
vn 0.000000 -1.000000 0.000000
vn 0.000000 -1.000000 0.000000
vn 0.000000 -1.000000 0.000000
vn 0.000000 -1.000000 0.000000
vn 0.000000 -1.000000 0.000000
vn 0.000000 -1.000000 0.000000
vn 0.000000 -1.000000 0.000000
vn 0.000000 -1.000000 0.000000
vn 0.000000 -1.000000 0.000000
vn 0.000000 -1.000000 0.000000
vn 0.000000 -1.000000 0.000000
vn 0.000000 -1.000000 0.000000
vn 0.000000 -1.000000 0.000000
vn 0.000000 -1.000000 0.000000
vn 0.000000 -1.000000 0.000000
vn 0.000000 -1.000000 0.000000
vn 0.000000 -1.000000 -0.000000
vn 0.000000 -1.000000 -0.000000
vn 0.000000 -1.000000 -0.000000
vn 0.000000 -1.000000 -0.000000
vn 0.000000 -1.000000 0.000000
vn 0.000000 -1.000000 0.000000
vn 0.000000 -1.000000 0.000000
vn 0.000000 -1.000000 0.000000
vn 0.000000 -1.000000 -0.000000
vn 0.000000 -1.000000 -0.000000
vn 0.000000 -1.000000 -0.000000
vn 0.000000 -1.000000 -0.000000
vn 0.000000 -1.000000 -0.000000
vn 0.000000 -1.000000 -0.000000
vn 0.000000 -1.000000 -0.000000
vn 0.000000 -1.000000 -0.000000
vn 0.000000 -1.000000 -0.000000
vn 0.000000 -1.000000 -0.000000
vn 0.000000 -1.000000 -0.000000
vn 0.000000 -1.000000 -0.000000
vn 0.000000 -1.000000 0.000000
vn 0.000000 -1.000000 0.000000
vn 0.000000 -1.000000 0.000000
vn 0.000000 -1.000000 0.000000
vn 0.000000 -1.000000 -0.000000
vn 0.000000 -1.000000 -0.000000
vn 0.000000 -1.000000 -0.000000
vn 0.000000 -1.000000 -0.000000
vn 0.000000 -1.000000 0.000000
vn 0.000000 -1.000000 0.000000
vn 0.000000 -1.000000 0.000000
vn 0.000000 -1.000000 0.000000
vn 0.000000 -1.000000 0.000000
vn 0.000000 -1.000000 0.000000
vn 0.000000 -1.000000 0.000000
vn 0.000000 -1.000000 0.000000
vn 0.000000 -1.000000 0.000000
vn 0.000000 -1.000000 0.000000
vn 0.000000 -1.000000 0.000000
vn 0.000000 -1.000000 0.000000
vn 0.000000 -1.000000 0.000000
vn 0.000000 -1.000000 0.000000
vn 0.000000 -1.000000 0.000000
vn 0.000000 -1.000000 0.000000
vn 0.000000 -1.000000 0.000000
vn 0.000000 -1.000000 0.000000
vn 0.000000 -1.000000 0.000000
vn 0.000000 -1.000000 0.000000
vn 0.000000 -1.000000 0.000000
vn 0.000000 -1.000000 0.000000
vn 0.000000 -1.000000 0.000000
vn 0.000000 -1.000000 0.000000
vn 0.000000 -1.000000 0.000000
vn 0.000000 -1.000000 0.000000
vn 0.000000 -1.000000 0.000000
vn 0.000000 -1.000000 0.000000
vn 0.000000 -1.000000 -0.000000
vn 0.000000 -1.000000 -0.000000
vn 0.000000 -1.000000 -0.000000
vn 0.000000 -1.000000 -0.000000
vn 0.000000 -1.000000 0.000000
vn 0.000000 -1.000000 0.000000
vn 0.000000 -1.000000 0.000000
vn 0.000000 -1.000000 0.000000
vn 0.000000 -1.000000 0.000000
vn 0.000000 -1.000000 0.000000
vn 0.000000 -1.000000 0.000000
vn 0.000000 -1.000000 0.000000
vn 0.000000 -1.000000 0.000000
vn 0.000000 -1.000000 0.000000
vn 0.000000 -1.000000 0.000000
vn 0.000000 -1.000000 0.000000
vn 0.000000 -1.000000 -0.000000
vn 0.000000 -1.000000 -0.000000
vn 0.000000 -1.000000 -0.000000
vn 0.000000 -1.000000 -0.000000
vn 0.000000 -1.000000 0.000000
vn 0.000000 -1.000000 0.000000
vn 0.000000 -1.000000 0.000000
vn 0.000000 -1.000000 0.000000
vn 0.000000 -1.000000 -0.000000
vn 0.000000 -1.000000 -0.000000
vn 0.000000 -1.000000 -0.000000
vn 0.000000 -1.000000 -0.000000
vn 0.000000 -1.000000 0.000000
vn 0.000000 -1.000000 0.000000
vn 0.000000 -1.000000 0.000000
vn 0.000000 -1.000000 0.000000
vn 0.000000 -1.000000 -0.000000
vn 0.000000 -1.000000 -0.000000
vn 0.000000 -1.000000 -0.000000
vn 0.000000 -1.000000 -0.000000
vn 0.000000 -1.000000 0.000000
vn 0.000000 -1.000000 0.000000
vn 0.000000 -1.000000 0.000000
vn 0.000000 -1.000000 0.000000
vn 0.000000 1.000000 0.000000
vn 0.000000 1.000000 0.000000
vn 0.000000 1.000000 0.000000
vn 0.000000 1.000000 0.000000
vn 0.000000 1.000000 0.000000
vn 0.000000 1.000000 0.000000
vn 0.000000 1.000000 0.000000
vn 0.000000 1.000000 0.000000
vn 0.000000 1.000000 0.000000
vn 0.000000 1.000000 0.000000
vn 0.000000 1.000000 0.000000
vn 0.000000 1.000000 0.000000
vn 0.000000 1.000000 0.000000
vn 0.000000 1.000000 0.000000
vn 0.000000 1.000000 0.000000
vn 0.000000 1.000000 0.000000
vn 0.000000 1.000000 0.000000
vn 0.000000 1.000000 0.000000
vn 0.000000 1.000000 0.000000
vn 0.000000 1.000000 0.000000
vn 0.000000 1.000000 0.000000
vn 0.000000 1.000000 0.000000
vn 0.000000 1.000000 0.000000
vn 0.000000 1.000000 0.000000
vn 0.000000 1.000000 0.000000
vn 0.000000 1.000000 0.000000
vn 0.000000 1.000000 0.000000
vn 0.000000 1.000000 0.000000
vn 0.000000 1.000000 0.000000
vn 0.000000 1.000000 0.000000
vn 0.000000 1.000000 0.000000
vn 0.000000 1.000000 0.000000
vn 0.000000 1.000000 0.000000
vn 0.000000 1.000000 0.000000
vn 0.000000 1.000000 0.000000
vn 0.000000 1.000000 0.000000
vn 0.000000 1.000000 0.000000
vn 0.000000 1.000000 0.000000
vn 0.000000 1.000000 0.000000
vn 0.000000 1.000000 0.000000
vn 0.000000 1.000000 0.000000
vn 0.000000 1.000000 0.000000
vn 0.000000 1.000000 0.000000
vn 0.000000 1.000000 0.000000
vn 0.000000 1.000000 0.000000
vn 0.000000 1.000000 0.000000
vn 0.000000 1.000000 0.000000
vn 0.000000 1.000000 0.000000
vn 0.000000 1.000000 0.000000
vn 0.000000 1.000000 0.000000
vn 0.000000 1.000000 0.000000
vn 0.000000 1.000000 0.000000
vn 0.000000 1.000000 0.000000
vn 0.000000 1.000000 0.000000
vn 0.000000 1.000000 0.000000
vn 0.000000 1.000000 0.000000
vn 0.000000 1.000000 0.000000
vn 0.000000 1.000000 0.000000
vn 0.000000 1.000000 0.000000
vn 0.000000 1.000000 0.000000
vn 0.000000 1.000000 0.000000
vn 0.000000 1.000000 0.000000
vn 0.000000 1.000000 0.000000
vn 0.000000 1.000000 0.000000
vn 0.000000 1.000000 0.000000
vn 0.000000 1.000000 0.000000
vn 0.000000 1.000000 0.000000
vn 0.000000 1.000000 0.000000
vn 0.000000 1.000000 0.000000
vn 0.000000 1.000000 0.000000
vn 0.000000 1.000000 0.000000
vn 0.000000 1.000000 0.000000
vn 0.000000 1.000000 0.000000
vn 0.000000 1.000000 0.000000
vn 0.000000 1.000000 0.000000
vn 0.000000 1.000000 0.000000
vn 0.000000 1.000000 0.000000
vn 0.000000 1.000000 0.000000
vn 0.000000 1.000000 0.000000
vn 0.000000 1.000000 0.000000
vn 0.000000 1.000000 0.000000
vn 0.000000 1.000000 0.000000
vn 0.000000 1.000000 0.000000
vn 0.000000 1.000000 0.000000
vn 0.000000 1.000000 0.000000
vn 0.000000 1.000000 0.000000
vn 0.000000 1.000000 0.000000
vn 0.000000 1.000000 0.000000
vn 0.000000 1.000000 0.000000
vn 0.000000 1.000000 0.000000
vn 0.000000 1.000000 0.000000
vn 0.000000 1.000000 0.000000
vn 0.000000 1.000000 0.000000
vn 0.000000 1.000000 0.000000
vn 0.000000 1.000000 0.000000
vn 0.000000 1.000000 0.000000
vn 0.000000 1.000000 0.000000
vn 0.000000 1.000000 0.000000
vn 0.000000 1.000000 0.000000
vn 0.000000 1.000000 0.000000
vn 0.000000 1.000000 0.000000
vn 0.000000 1.000000 0.000000
vn 0.000000 1.000000 0.000000
vn 0.000000 1.000000 0.000000
vn 0.000000 1.000000 0.000000
vn 0.000000 1.000000 0.000000
vn 0.000000 1.000000 0.000000
vn 0.000000 1.000000 0.000000
vn 0.000000 1.000000 0.000000
vn 0.000000 1.000000 0.000000
vn 0.000000 1.000000 0.000000
vn 0.000000 1.000000 0.000000
vn 0.000000 1.000000 0.000000
vn 0.000000 1.000000 0.000000
vn 0.000000 1.000000 0.000000
vn 0.000000 1.000000 0.000000
vn 0.000000 1.000000 0.000000
vn 0.000000 1.000000 0.000000
vn 0.000000 1.000000 0.000000
vn 0.000000 1.000000 0.000000
vn 0.000000 1.000000 0.000000
vn 0.000000 1.000000 0.000000
vn 0.000000 1.000000 0.000000
vn 0.000000 1.000000 0.000000
vn 0.000000 1.000000 0.000000
vn 0.000000 1.000000 0.000000
vn 0.000000 1.000000 0.000000
vn 0.000000 1.000000 0.000000
vn -0.956940 0.000000 0.290285
vn -0.956940 0.000000 0.290285
vn -0.956940 0.000000 0.290285
vn -0.956940 0.000000 0.290285
vn 0.956940 0.000000 -0.290284
vn 0.956940 0.000000 -0.290284
vn 0.956940 0.000000 -0.290284
vn 0.956940 0.000000 -0.290284
vn -0.881922 0.000000 0.471395
vn -0.881922 0.000000 0.471395
vn -0.881922 0.000000 0.471395
vn -0.881922 0.000000 0.471395
vn 0.881921 0.000000 -0.471397
vn 0.881921 0.000000 -0.471397
vn 0.881921 0.000000 -0.471397
vn 0.881921 0.000000 -0.471397
vn -0.773011 0.000000 0.634393
vn -0.773011 0.000000 0.634393
vn -0.773011 0.000000 0.634393
vn -0.773011 0.000000 0.634393
vn 0.773011 0.000000 -0.634393
vn 0.773011 0.000000 -0.634393
vn 0.773011 0.000000 -0.634393
vn 0.773011 0.000000 -0.634393
vn -0.634394 0.000000 0.773010
vn -0.634394 0.000000 0.773010
vn -0.634394 0.000000 0.773010
vn -0.634394 0.000000 0.773010
vn 0.634394 0.000000 -0.773010
vn 0.634394 0.000000 -0.773010
vn 0.634394 0.000000 -0.773010
vn 0.634394 0.000000 -0.773010
vn -0.471397 0.000000 0.881921
vn -0.471397 0.000000 0.881921
vn -0.471397 0.000000 0.881921
vn -0.471397 0.000000 0.881921
vn 0.471398 0.000000 -0.881921
vn 0.471398 0.000000 -0.881921
vn 0.471398 0.000000 -0.881921
vn 0.471398 0.000000 -0.881921
vn -0.290285 0.000000 0.956940
vn -0.290285 0.000000 0.956940
vn -0.290285 0.000000 0.956940
vn -0.290285 0.000000 0.956940
vn 0.290285 0.000000 -0.956940
vn 0.290285 0.000000 -0.956940
vn 0.290285 0.000000 -0.956940
vn 0.290285 0.000000 -0.956940
vn -0.098018 0.000000 0.995185
vn -0.098018 0.000000 0.995185
vn -0.098018 0.000000 0.995185
vn -0.098018 0.000000 0.995185
vn 0.098016 0.000000 -0.995185
vn 0.098016 0.000000 -0.995185
vn 0.098016 0.000000 -0.995185
vn 0.098016 0.000000 -0.995185
vn 0.098017 0.000000 0.995185
vn 0.098017 0.000000 0.995185
vn 0.098017 0.000000 0.995185
vn 0.098017 0.000000 0.995185
vn -0.098016 0.000000 -0.995185
vn -0.098016 0.000000 -0.995185
vn -0.098016 0.000000 -0.995185
vn -0.098016 0.000000 -0.995185
vn 0.290284 0.000000 0.956941
vn 0.290284 0.000000 0.956941
vn 0.290284 0.000000 0.956941
vn 0.290284 0.000000 0.956941
vn -0.290284 0.000000 -0.956941
vn -0.290284 0.000000 -0.956941
vn -0.290284 0.000000 -0.956941
vn -0.290284 0.000000 -0.956941
vn 0.471396 0.000000 0.881922
vn 0.471396 0.000000 0.881922
vn 0.471396 0.000000 0.881922
vn 0.471396 0.000000 0.881922
vn -0.471396 0.000000 -0.881921
vn -0.471396 0.000000 -0.881921
vn -0.471396 0.000000 -0.881921
vn -0.471396 0.000000 -0.881921
vn 0.634393 0.000000 0.773011
vn 0.634393 0.000000 0.773011
vn 0.634393 0.000000 0.773011
vn 0.634393 0.000000 0.773011
vn -0.634393 0.000000 -0.773011
vn -0.634393 0.000000 -0.773011
vn -0.634393 0.000000 -0.773011
vn -0.634393 0.000000 -0.773011
vn 0.773010 0.000000 0.634394
vn 0.773010 0.000000 0.634394
vn 0.773010 0.000000 0.634394
vn 0.773010 0.000000 0.634394
vn -0.773010 0.000000 -0.634394
vn -0.773010 0.000000 -0.634394
vn -0.773010 0.000000 -0.634394
vn -0.773010 0.000000 -0.634394
vn 0.881921 0.000000 0.471396
vn 0.881921 0.000000 0.471396
vn 0.881921 0.000000 0.471396
vn 0.881921 0.000000 0.471396
vn -0.881921 0.000000 -0.471398
vn -0.881921 0.000000 -0.471398
vn -0.881921 0.000000 -0.471398
vn -0.881921 0.000000 -0.471398
vn 0.956940 0.000000 0.290286
vn 0.956940 0.000000 0.290286
vn 0.956940 0.000000 0.290286
vn 0.956940 0.000000 0.290286
vn -0.956941 0.000000 -0.290284
vn -0.956941 0.000000 -0.290284
vn -0.956941 0.000000 -0.290284
vn -0.956941 0.000000 -0.290284
vn 0.995185 0.000000 0.098018
vn 0.995185 0.000000 0.098018
vn 0.995185 0.000000 0.098018
vn 0.995185 0.000000 0.098018
vn -0.995185 0.000000 -0.098017
vn -0.995185 0.000000 -0.098017
vn -0.995185 0.000000 -0.098017
vn -0.995185 0.000000 -0.098017
vn 0.995185 0.000000 -0.098017
vn 0.995185 0.000000 -0.098017
vn 0.995185 0.000000 -0.098017
vn 0.995185 0.000000 -0.098017
vn -0.995185 0.000000 0.098016
vn -0.995185 0.000000 0.098016
vn -0.995185 0.000000 0.098016
vn -0.995185 0.000000 0.098016
vn 0.956940 0.000000 -0.290285
vn 0.956940 0.000000 -0.290285
vn 0.956940 0.000000 -0.290285
vn 0.956940 0.000000 -0.290285
vn -0.956941 0.000000 0.290284
vn -0.956941 0.000000 0.290284
vn -0.956941 0.000000 0.290284
vn -0.956941 0.000000 0.290284
vn 0.881922 0.000000 -0.471396
vn 0.881922 0.000000 -0.471396
vn 0.881922 0.000000 -0.471396
vn 0.881922 0.000000 -0.471396
vn -0.881922 0.000000 0.471396
vn -0.881922 0.000000 0.471396
vn -0.881922 0.000000 0.471396
vn -0.881922 0.000000 0.471396
vn 0.773011 0.000000 -0.634393
vn 0.773011 0.000000 -0.634393
vn 0.773011 0.000000 -0.634393
vn 0.773011 0.000000 -0.634393
vn -0.773010 0.000000 0.634394
vn -0.773010 0.000000 0.634394
vn -0.773010 0.000000 0.634394
vn -0.773010 0.000000 0.634394
vn 0.634394 0.000000 -0.773010
vn 0.634394 0.000000 -0.773010
vn 0.634394 0.000000 -0.773010
vn 0.634394 0.000000 -0.773010
vn -0.634395 0.000000 0.773010
vn -0.634395 0.000000 0.773010
vn -0.634395 0.000000 0.773010
vn -0.634395 0.000000 0.773010
vn 0.471397 0.000000 -0.881921
vn 0.471397 0.000000 -0.881921
vn 0.471397 0.000000 -0.881921
vn 0.471397 0.000000 -0.881921
vn -0.471398 0.000000 0.881921
vn -0.471398 0.000000 0.881921
vn -0.471398 0.000000 0.881921
vn -0.471398 0.000000 0.881921
vn 0.290285 0.000000 -0.956940
vn 0.290285 0.000000 -0.956940
vn 0.290285 0.000000 -0.956940
vn 0.290285 0.000000 -0.956940
vn -0.290284 0.000000 0.956941
vn -0.290284 0.000000 0.956941
vn -0.290284 0.000000 0.956941
vn -0.290284 0.000000 0.956941
vn 0.098018 0.000000 -0.995185
vn 0.098018 0.000000 -0.995185
vn 0.098018 0.000000 -0.995185
vn 0.098018 0.000000 -0.995185
vn -0.098017 0.000000 0.995185
vn -0.098017 0.000000 0.995185
vn -0.098017 0.000000 0.995185
vn -0.098017 0.000000 0.995185
vn -0.098017 0.000000 -0.995185
vn -0.098017 0.000000 -0.995185
vn -0.098017 0.000000 -0.995185
vn -0.098017 0.000000 -0.995185
vn 0.098016 0.000000 0.995185
vn 0.098016 0.000000 0.995185
vn 0.098016 0.000000 0.995185
vn 0.098016 0.000000 0.995185
vn -0.290284 0.000000 -0.956941
vn -0.290284 0.000000 -0.956941
vn -0.290284 0.000000 -0.956941
vn -0.290284 0.000000 -0.956941
vn 0.290284 0.000000 0.956941
vn 0.290284 0.000000 0.956941
vn 0.290284 0.000000 0.956941
vn 0.290284 0.000000 0.956941
vn -0.471397 0.000000 -0.881921
vn -0.471397 0.000000 -0.881921
vn -0.471397 0.000000 -0.881921
vn -0.471397 0.000000 -0.881921
vn 0.471397 0.000000 0.881921
vn 0.471397 0.000000 0.881921
vn 0.471397 0.000000 0.881921
vn 0.471397 0.000000 0.881921
vn -0.634393 0.000000 -0.773011
vn -0.634393 0.000000 -0.773011
vn -0.634393 0.000000 -0.773011
vn -0.634393 0.000000 -0.773011
vn 0.634393 0.000000 0.773011
vn 0.634393 0.000000 0.773011
vn 0.634393 0.000000 0.773011
vn 0.634393 0.000000 0.773011
vn -0.773011 0.000000 -0.634393
vn -0.773011 0.000000 -0.634393
vn -0.773011 0.000000 -0.634393
vn -0.773011 0.000000 -0.634393
vn 0.773010 0.000000 0.634394
vn 0.773010 0.000000 0.634394
vn 0.773010 0.000000 0.634394
vn 0.773010 0.000000 0.634394
vn -0.881921 0.000000 -0.471397
vn -0.881921 0.000000 -0.471397
vn -0.881921 0.000000 -0.471397
vn -0.881921 0.000000 -0.471397
vn 0.881921 0.000000 0.471398
vn 0.881921 0.000000 0.471398
vn 0.881921 0.000000 0.471398
vn 0.881921 0.000000 0.471398
vn -0.956940 0.000000 -0.290286
vn -0.956940 0.000000 -0.290286
vn -0.956940 0.000000 -0.290286
vn -0.956940 0.000000 -0.290286
vn 0.956940 0.000000 0.290285
vn 0.956940 0.000000 0.290285
vn 0.956940 0.000000 0.290285
vn 0.956940 0.000000 0.290285
vn -0.995185 0.000000 -0.098017
vn -0.995185 0.000000 -0.098017
vn -0.995185 0.000000 -0.098017
vn -0.995185 0.000000 -0.098017
vn 0.995185 0.000000 0.098017
vn 0.995185 0.000000 0.098017
vn 0.995185 0.000000 0.098017
vn 0.995185 0.000000 0.098017
vn -0.995184 0.000000 0.098023
vn -0.995184 0.000000 0.098023
vn -0.995184 0.000000 0.098023
vn -0.995184 0.000000 0.098023
vn 0.995184 0.000000 -0.098022
vn 0.995184 0.000000 -0.098022
vn 0.995184 0.000000 -0.098022
vn 0.995184 0.000000 -0.098022
s off
g polySurface3
usemtl initialShadingGroup
f 9/15/1 10/16/2 11/17/3 12/18/4
s 1
f 3/3/5 4/4/6 6/6/7 5/5/8
s off
f 13/19/9 14/20/10 15/21/11 16/22/12
s 2
f 7/7/13 8/8/14 2/10/15 1/9/16
s off
f 18/23/17 17/24/18 19/25/19 20/26/20
f 21/27/21 22/28/22 23/29/23 24/30/24
s 2
f 1/1/16 2/2/15 10/16/25 9/15/26
s off
f 2/2/27 4/4/28 11/17/29 10/16/30
s 1
f 4/4/6 3/3/5 12/18/31 11/17/32
s off
f 3/3/33 1/1/34 9/15/35 12/18/36
s 1
f 5/5/8 6/6/7 14/20/37 13/19/38
s off
f 6/6/39 8/8/40 15/21/41 14/20/42
s 2
f 8/8/14 7/7/13 16/22/43 15/21/44
s off
f 7/7/45 5/5/46 13/19/47 16/22/48
s 2
f 2/2/15 8/11/14 17/24/49 18/23/50
s off
f 8/11/51 6/12/52 19/25/53 17/24/54
s 1
f 6/12/7 4/4/6 20/26/55 19/25/56
s off
f 4/4/57 2/2/58 18/23/59 20/26/60
s 2
f 7/13/13 1/1/16 22/28/61 21/27/62
s off
f 1/1/63 3/3/64 23/29/65 22/28/66
s 1
f 3/3/5 5/14/8 24/30/67 23/29/68
s off
f 5/14/69 7/13/70 21/27/71 24/30/72
f 89/31/73 90/32/74 91/33/75 92/34/76
f 90/32/77 93/35/78 94/36/79 91/33/80
f 93/35/81 95/37/82 96/38/83 94/36/84
f 95/37/85 97/39/86 98/40/87 96/38/88
f 97/39/89 99/41/90 100/42/91 98/40/92
f 99/41/93 101/43/94 102/44/95 100/42/96
f 101/43/97 103/45/98 104/46/99 102/44/100
f 103/45/101 105/47/102 106/48/103 104/46/104
f 105/47/105 107/49/106 108/50/107 106/48/108
f 107/49/109 109/51/110 110/52/111 108/50/112
f 109/51/113 111/53/114 112/54/115 110/52/116
f 111/53/117 113/55/118 114/56/119 112/54/120
f 113/55/121 115/57/122 116/58/123 114/56/124
f 115/57/125 117/59/126 118/60/127 116/58/128
f 117/59/129 119/61/130 120/62/131 118/60/132
f 119/61/133 121/63/134 122/64/135 120/62/136
f 121/63/137 123/65/138 124/66/139 122/64/140
f 123/65/141 125/67/142 126/68/143 124/66/144
f 125/67/145 127/69/146 128/70/147 126/68/148
f 127/69/149 129/71/150 130/72/151 128/70/152
f 129/71/153 131/73/154 132/74/155 130/72/156
f 131/73/157 133/75/158 134/76/159 132/74/160
f 133/75/161 135/77/162 136/78/163 134/76/164
f 135/77/165 137/79/166 138/80/167 136/78/168
f 137/79/169 139/81/170 140/82/171 138/80/172
f 139/81/173 141/83/174 142/84/175 140/82/176
f 141/83/177 143/85/178 144/86/179 142/84/180
f 143/85/181 145/87/182 146/88/183 144/86/184
f 145/87/185 147/89/186 148/90/187 146/88/188
f 147/89/189 149/91/190 150/92/191 148/90/192
f 149/91/193 151/93/194 152/94/195 150/92/196
f 151/93/197 89/31/198 92/34/199 152/94/200
f 25/95/201 57/96/202 58/97/203 26/98/204
f 26/98/205 58/97/206 59/99/207 27/100/208
f 27/100/209 59/99/210 60/101/211 28/102/212
f 28/102/213 60/101/214 61/103/215 29/104/216
f 29/104/217 61/103/218 62/105/219 30/106/220
f 30/106/221 62/105/222 63/107/223 31/108/224
f 31/108/225 63/107/226 64/109/227 32/110/228
f 32/110/229 64/109/230 65/111/231 33/112/232
f 33/112/233 65/111/234 66/113/235 34/114/236
f 34/114/237 66/113/238 67/115/239 35/116/240
f 35/116/241 67/115/242 68/117/243 36/118/244
f 36/118/245 68/117/246 69/119/247 37/120/248
f 37/120/249 69/119/250 70/121/251 38/122/252
f 38/122/253 70/121/254 71/123/255 39/124/256
f 39/124/257 71/123/258 72/125/259 40/126/260
f 40/126/261 72/125/262 73/127/263 41/128/264
f 41/128/265 73/127/266 74/129/267 42/130/268
f 42/130/269 74/129/270 75/131/271 43/132/272
f 43/132/273 75/131/274 76/133/275 44/134/276
f 44/134/277 76/133/278 77/135/279 45/136/280
f 45/136/281 77/135/282 78/137/283 46/138/284
f 46/138/285 78/137/286 79/139/287 47/140/288
f 47/140/289 79/139/290 80/141/291 48/142/292
f 48/142/293 80/141/294 81/143/295 49/144/296
f 49/144/297 81/143/298 82/145/299 50/146/300
f 50/146/301 82/145/302 83/147/303 51/148/304
f 51/148/305 83/147/306 84/149/307 52/150/308
f 52/150/309 84/149/310 85/151/311 53/152/312
f 53/152/313 85/151/314 86/153/315 54/154/316
f 54/154/317 86/153/318 87/155/319 55/156/320
f 55/156/321 87/155/322 88/157/323 56/158/324
f 56/158/325 88/157/326 57/96/327 25/95/328
f 25/159/329 26/160/330 90/32/331 89/31/332
f 58/161/333 57/162/334 92/34/335 91/33/336
f 26/160/337 27/163/338 93/35/339 90/32/340
f 59/164/341 58/161/342 91/33/343 94/36/344
f 27/163/345 28/165/346 95/37/347 93/35/348
f 60/166/349 59/164/350 94/36/351 96/38/352
f 28/165/353 29/167/354 97/39/355 95/37/356
f 61/168/357 60/166/358 96/38/359 98/40/360
f 29/167/361 30/169/362 99/41/363 97/39/364
f 62/170/365 61/168/366 98/40/367 100/42/368
f 30/169/369 31/171/370 101/43/371 99/41/372
f 63/172/373 62/170/374 100/42/375 102/44/376
f 31/171/377 32/173/378 103/45/379 101/43/380
f 64/174/381 63/172/382 102/44/383 104/46/384
f 32/173/385 33/175/386 105/47/387 103/45/388
f 65/176/389 64/174/390 104/46/391 106/48/392
f 33/175/393 34/177/394 107/49/395 105/47/396
f 66/178/397 65/176/398 106/48/399 108/50/400
f 34/177/401 35/179/402 109/51/403 107/49/404
f 67/180/405 66/178/406 108/50/407 110/52/408
f 35/179/409 36/181/410 111/53/411 109/51/412
f 68/182/413 67/180/414 110/52/415 112/54/416
f 36/181/417 37/183/418 113/55/419 111/53/420
f 69/184/421 68/182/422 112/54/423 114/56/424
f 37/183/425 38/185/426 115/57/427 113/55/428
f 70/186/429 69/184/430 114/56/431 116/58/432
f 38/185/433 39/187/434 117/59/435 115/57/436
f 71/188/437 70/186/438 116/58/439 118/60/440
f 39/187/441 40/189/442 119/61/443 117/59/444
f 72/190/445 71/188/446 118/60/447 120/62/448
f 40/189/449 41/191/450 121/63/451 119/61/452
f 73/192/453 72/190/454 120/62/455 122/64/456
f 41/191/457 42/193/458 123/65/459 121/63/460
f 74/194/461 73/192/462 122/64/463 124/66/464
f 42/193/465 43/195/466 125/67/467 123/65/468
f 75/196/469 74/194/470 124/66/471 126/68/472
f 43/195/473 44/197/474 127/69/475 125/67/476
f 76/198/477 75/196/478 126/68/479 128/70/480
f 44/197/481 45/199/482 129/71/483 127/69/484
f 77/200/485 76/198/486 128/70/487 130/72/488
f 45/199/489 46/201/490 131/73/491 129/71/492
f 78/202/493 77/200/494 130/72/495 132/74/496
f 46/201/497 47/203/498 133/75/499 131/73/500
f 79/204/501 78/202/502 132/74/503 134/76/504
f 47/203/505 48/205/506 135/77/507 133/75/508
f 80/206/509 79/204/510 134/76/511 136/78/512
f 48/205/513 49/207/514 137/79/515 135/77/516
f 81/208/517 80/206/518 136/78/519 138/80/520
f 49/207/521 50/209/522 139/81/523 137/79/524
f 82/210/525 81/208/526 138/80/527 140/82/528
f 50/209/529 51/211/530 141/83/531 139/81/532
f 83/212/533 82/210/534 140/82/535 142/84/536
f 51/211/537 52/213/538 143/85/539 141/83/540
f 84/214/541 83/212/542 142/84/543 144/86/544
f 52/213/545 53/215/546 145/87/547 143/85/548
f 85/216/549 84/214/550 144/86/551 146/88/552
f 53/215/553 54/217/554 147/89/555 145/87/556
f 86/218/557 85/216/558 146/88/559 148/90/560
f 54/217/561 55/219/562 149/91/563 147/89/564
f 87/220/565 86/218/566 148/90/567 150/92/568
f 55/219/569 56/221/570 151/93/571 149/91/572
f 88/222/573 87/220/574 150/92/575 152/94/576
f 56/221/577 25/159/578 89/31/579 151/93/580
f 57/162/581 88/222/582 152/94/583 92/34/584
