# This file uses centimeters as units for non-parametric coordinates.

mtllib Ok.mtl
g default
v 0.567213 -0.070350 -0.394239
v 0.666703 -0.070350 -0.294750
v 0.666703 0.070350 -0.294750
v 0.567213 0.070350 -0.394239
v -0.287759 -0.070350 0.460733
v -0.188269 -0.070350 0.560222
v -0.188269 0.070350 0.560222
v -0.287759 0.070350 0.460733
v -0.394239 -0.070350 0.567213
v -0.294750 -0.070350 0.666703
v -0.294750 0.070350 0.666703
v -0.394239 0.070350 0.567213
v -0.560223 0.070350 0.188269
v -0.560223 -0.070350 0.188269
v -0.666703 -0.070350 0.294749
v -0.666703 0.070350 0.294749
v 0.832898 0.000000 -0.165674
v 0.784573 0.000000 -0.324981
v 0.706097 0.000000 -0.471799
v 0.600486 0.000000 -0.600487
v 0.471799 0.000000 -0.706098
v 0.324981 0.000000 -0.784574
v 0.165674 0.000000 -0.832899
v 0.000000 0.000000 -0.849217
v -0.165674 0.000000 -0.832899
v -0.324981 0.000000 -0.784574
v -0.471799 0.000000 -0.706098
v -0.600487 0.000000 -0.600487
v -0.706098 0.000000 -0.471800
v -0.784574 0.000000 -0.324982
v -0.832899 0.000000 -0.165675
v -0.849217 0.000000 -0.000001
v -0.832900 0.000000 0.165673
v -0.784574 0.000000 0.324981
v -0.706098 0.000000 0.471799
v -0.600488 0.000000 0.600487
v -0.471800 0.000000 0.706098
v -0.324982 0.000000 0.784574
v -0.165675 0.000000 0.832899
v -0.000001 0.000000 0.849217
v 0.165674 0.000000 0.832899
v 0.324981 0.000000 0.784574
v 0.471799 0.000000 0.706098
v 0.600487 0.000000 0.600487
v 0.706098 0.000000 0.471800
v 0.784574 0.000000 0.324981
v 0.832899 0.000000 0.165674
v 0.849217 0.000000 -0.000000
v 0.979028 0.000000 -0.194741
v 0.922224 0.000000 -0.381998
v 0.829980 0.000000 -0.554575
v 0.705840 0.000000 -0.705840
v 0.554575 0.000000 -0.829980
v 0.381998 0.000000 -0.922225
v 0.194741 0.000000 -0.979029
v 0.000000 0.000000 -0.998209
v -0.194741 0.000000 -0.979029
v -0.381998 0.000000 -0.922225
v -0.554575 0.000000 -0.829981
v -0.705840 0.000000 -0.705841
v -0.829981 0.000000 -0.554576
v -0.922225 0.000000 -0.381999
v -0.979029 0.000000 -0.194742
v -0.998209 0.000000 -0.000001
v -0.979029 0.000000 0.194740
v -0.922226 0.000000 0.381998
v -0.829981 0.000000 0.554575
v -0.705841 0.000000 0.705840
v -0.554576 0.000000 0.829980
v -0.381999 0.000000 0.922225
v -0.194742 0.000000 0.979029
v -0.000001 0.000000 0.998209
v 0.194740 0.000000 0.979029
v 0.381998 0.000000 0.922225
v 0.554575 0.000000 0.829981
v 0.705840 0.000000 0.705840
v 0.829980 0.000000 0.554575
v 0.922225 0.000000 0.381998
v 0.979029 0.000000 0.194741
v 0.998209 0.000000 -0.000000
v 0.832898 -0.113733 -0.165674
v 0.784573 -0.113733 -0.324981
v 0.922224 -0.113733 -0.381998
v 0.979028 -0.113733 -0.194741
v 0.706097 -0.113733 -0.471799
v 0.829980 -0.113733 -0.554575
v 0.600486 -0.113733 -0.600487
v 0.705840 -0.113733 -0.705840
v 0.471799 -0.113733 -0.706098
v 0.554575 -0.113733 -0.829980
v 0.324981 -0.113733 -0.784574
v 0.381998 -0.113733 -0.922225
v 0.165674 -0.113733 -0.832899
v 0.194741 -0.113733 -0.979029
v 0.000000 -0.113733 -0.849217
v 0.000000 -0.113733 -0.998209
v -0.165674 -0.113733 -0.832899
v -0.194741 -0.113733 -0.979029
v -0.324981 -0.113733 -0.784574
v -0.381998 -0.113733 -0.922225
v -0.471799 -0.113733 -0.706098
v -0.554575 -0.113733 -0.829981
v -0.600487 -0.113733 -0.600487
v -0.705840 -0.113733 -0.705841
v -0.706098 -0.113733 -0.471800
v -0.829981 -0.113733 -0.554576
v -0.784574 -0.113733 -0.324982
v -0.922225 -0.113733 -0.381999
v -0.832899 -0.113733 -0.165675
v -0.979029 -0.113733 -0.194742
v -0.849217 -0.113733 -0.000001
v -0.998209 -0.113733 -0.000001
v -0.832900 -0.113733 0.165673
v -0.979029 -0.113733 0.194740
v -0.784574 -0.113733 0.324981
v -0.922226 -0.113733 0.381998
v -0.706098 -0.113733 0.471799
v -0.829981 -0.113733 0.554575
v -0.600488 -0.113733 0.600487
v -0.705841 -0.113733 0.705840
v -0.471800 -0.113733 0.706098
v -0.554576 -0.113733 0.829980
v -0.324982 -0.113733 0.784574
v -0.381999 -0.113733 0.922225
v -0.165675 -0.113733 0.832899
v -0.194742 -0.113733 0.979029
v -0.000001 -0.113733 0.849217
v -0.000001 -0.113733 0.998209
v 0.165674 -0.113733 0.832899
v 0.194740 -0.113733 0.979029
v 0.324981 -0.113733 0.784574
v 0.381998 -0.113733 0.922225
v 0.471799 -0.113733 0.706098
v 0.554575 -0.113733 0.829981
v 0.600487 -0.113733 0.600487
v 0.705840 -0.113733 0.705840
v 0.706098 -0.113733 0.471800
v 0.829980 -0.113733 0.554575
v 0.784574 -0.113733 0.324981
v 0.922225 -0.113733 0.381998
v 0.832899 -0.113733 0.165674
v 0.979029 -0.113733 0.194741
v 0.849217 -0.113733 -0.000000
v 0.998209 -0.113733 -0.000000
vt 0.125000 0.000000
vt 0.375000 0.000000
vt 0.375000 0.250000
vt 0.125000 0.250000
vt 0.125000 0.000000
vt 0.375000 0.000000
vt 0.375000 0.250000
vt 0.125000 0.250000
vt 0.125000 0.000000
vt 0.375000 0.000000
vt 0.375000 0.250000
vt 0.125000 0.250000
vt 0.125000 0.000000
vt 0.375000 0.000000
vt 0.375000 0.250000
vt 0.125000 0.250000
vt 0.125000 0.250000
vt 0.125000 0.000000
vt 0.125000 0.000000
vt 0.125000 0.250000
vt 0.653248 0.874233
vt 0.644356 0.903544
vt 0.644356 0.903544
vt 0.653248 0.874233
vt 0.629917 0.930558
vt 0.629917 0.930558
vt 0.610485 0.954235
vt 0.610485 0.954235
vt 0.586808 0.973667
vt 0.586808 0.973667
vt 0.559794 0.988106
vt 0.559794 0.988106
vt 0.530483 0.996998
vt 0.530483 0.996998
vt 0.500000 1.000000
vt 0.500000 1.000000
vt 0.469517 0.996998
vt 0.469517 0.996998
vt 0.440206 0.988106
vt 0.440206 0.988106
vt 0.413192 0.973667
vt 0.413192 0.973667
vt 0.389515 0.954235
vt 0.389515 0.954235
vt 0.370083 0.930558
vt 0.370083 0.930558
vt 0.355644 0.903544
vt 0.355644 0.903544
vt 0.346752 0.874233
vt 0.346752 0.874233
vt 0.343750 0.843750
vt 0.343750 0.843750
vt 0.346752 0.813267
vt 0.346752 0.813267
vt 0.355644 0.783956
vt 0.355644 0.783956
vt 0.370083 0.756942
vt 0.370083 0.756942
vt 0.389515 0.733265
vt 0.389515 0.733265
vt 0.413192 0.713833
vt 0.413192 0.713833
vt 0.440206 0.699394
vt 0.440206 0.699394
vt 0.469517 0.690502
vt 0.469517 0.690502
vt 0.500000 0.687500
vt 0.500000 0.687500
vt 0.530483 0.690502
vt 0.530483 0.690502
vt 0.559794 0.699394
vt 0.559794 0.699394
vt 0.586808 0.713833
vt 0.586808 0.713833
vt 0.610485 0.733265
vt 0.610485 0.733265
vt 0.629917 0.756942
vt 0.629917 0.756942
vt 0.644356 0.783956
vt 0.644356 0.783956
vt 0.653248 0.813267
vt 0.653248 0.813267
vt 0.656250 0.843750
vt 0.656250 0.843750
vt 0.653248 0.874233
vt 0.653248 0.874233
vt 0.644356 0.903544
vt 0.644356 0.903544
vt 0.629917 0.930558
vt 0.629917 0.930558
vt 0.610485 0.954235
vt 0.610485 0.954235
vt 0.586808 0.973667
vt 0.586808 0.973667
vt 0.559794 0.988106
vt 0.559794 0.988106
vt 0.530483 0.996998
vt 0.530483 0.996998
vt 0.500000 1.000000
vt 0.500000 1.000000
vt 0.469517 0.996998
vt 0.469517 0.996998
vt 0.440206 0.988106
vt 0.440206 0.988106
vt 0.413192 0.973667
vt 0.413192 0.973667
vt 0.389515 0.954235
vt 0.389515 0.954235
vt 0.370083 0.930558
vt 0.370083 0.930558
vt 0.355644 0.903544
vt 0.355644 0.903544
vt 0.346752 0.874233
vt 0.346752 0.874233
vt 0.343750 0.843750
vt 0.343750 0.843750
vt 0.346752 0.813267
vt 0.346752 0.813267
vt 0.355644 0.783956
vt 0.355644 0.783956
vt 0.370083 0.756942
vt 0.370083 0.756942
vt 0.389515 0.733265
vt 0.389515 0.733265
vt 0.413192 0.713833
vt 0.413192 0.713833
vt 0.440206 0.699394
vt 0.440206 0.699394
vt 0.469517 0.690502
vt 0.469517 0.690502
vt 0.500000 0.687500
vt 0.500000 0.687500
vt 0.530483 0.690502
vt 0.530483 0.690502
vt 0.559794 0.699394
vt 0.559794 0.699394
vt 0.586808 0.713833
vt 0.586808 0.713833
vt 0.610485 0.733265
vt 0.610485 0.733265
vt 0.629917 0.756942
vt 0.629917 0.756942
vt 0.644356 0.783956
vt 0.644356 0.783956
vt 0.653248 0.813267
vt 0.653248 0.813267
vt 0.656250 0.843750
vt 0.656250 0.843750
vt 0.653248 0.874233
vt 0.644356 0.903544
vt 0.644356 0.903544
vt 0.653248 0.874233
vt 0.629917 0.930558
vt 0.629917 0.930558
vt 0.610485 0.954235
vt 0.610485 0.954235
vt 0.586808 0.973667
vt 0.586808 0.973667
vt 0.559794 0.988106
vt 0.559794 0.988106
vt 0.530483 0.996998
vt 0.530483 0.996998
vt 0.500000 1.000000
vt 0.500000 1.000000
vt 0.469517 0.996998
vt 0.469517 0.996998
vt 0.440206 0.988106
vt 0.440206 0.988106
vt 0.413192 0.973667
vt 0.413192 0.973667
vt 0.389515 0.954235
vt 0.389515 0.954235
vt 0.370083 0.930558
vt 0.370083 0.930558
vt 0.355644 0.903544
vt 0.355644 0.903544
vt 0.346752 0.874233
vt 0.346752 0.874233
vt 0.343750 0.843750
vt 0.343750 0.843750
vt 0.346752 0.813267
vt 0.346752 0.813267
vt 0.355644 0.783956
vt 0.355644 0.783956
vt 0.370083 0.756942
vt 0.370083 0.756942
vt 0.389515 0.733265
vt 0.389515 0.733265
vt 0.413192 0.713833
vt 0.413192 0.713833
vt 0.440206 0.699394
vt 0.440206 0.699394
vt 0.469517 0.690502
vt 0.469517 0.690502
vt 0.500000 0.687500
vt 0.500000 0.687500
vt 0.530483 0.690502
vt 0.530483 0.690502
vt 0.559794 0.699394
vt 0.559794 0.699394
vt 0.586808 0.713833
vt 0.586808 0.713833
vt 0.610485 0.733265
vt 0.610485 0.733265
vt 0.629917 0.756942
vt 0.629917 0.756942
vt 0.644356 0.783956
vt 0.644356 0.783956
vt 0.653248 0.813267
vt 0.653248 0.813267
vt 0.656250 0.843750
vt 0.656250 0.843750
vn -0.707107 0.000000 0.707107
vn -0.707107 0.000000 0.707107
vn -0.707107 0.000000 0.707107
vn -0.707107 0.000000 0.707107
vn 0.707106 0.000000 -0.707107
vn 0.707106 0.000000 -0.707107
vn 0.707106 0.000000 -0.707107
vn 0.707106 0.000000 -0.707107
vn 0.000000 -1.000000 0.000000
vn 0.000000 -1.000000 0.000000
vn 0.000000 -1.000000 0.000000
vn 0.000000 -1.000000 0.000000
vn 0.707107 0.000000 0.707107
vn 0.707107 0.000000 0.707107
vn 0.707107 0.000000 0.707107
vn 0.707107 0.000000 0.707107
vn 0.000000 1.000000 0.000000
vn 0.000000 1.000000 0.000000
vn 0.000000 1.000000 0.000000
vn 0.000000 1.000000 0.000000
vn -0.707107 0.000000 -0.707107
vn -0.707107 0.000000 -0.707107
vn -0.707107 0.000000 -0.707107
vn -0.707107 0.000000 -0.707107
vn 0.000000 -1.000000 0.000000
vn 0.000000 -1.000000 0.000000
vn 0.707107 0.000000 0.707107
vn 0.707107 0.000000 0.707107
vn 0.000000 1.000000 0.000000
vn 0.000000 1.000000 0.000000
vn -0.707108 0.000000 -0.707106
vn -0.707108 0.000000 -0.707106
vn -0.707108 0.000000 -0.707106
vn -0.707108 0.000000 -0.707106
vn 0.707107 0.000000 -0.707107
vn 0.707107 0.000000 -0.707107
vn 0.707107 0.000000 -0.707107
vn 0.707107 0.000000 -0.707107
vn 0.000000 -1.000000 0.000000
vn 0.000000 -1.000000 0.000000
vn -0.707107 0.000000 0.707107
vn -0.707107 0.000000 0.707107
vn 0.000000 1.000000 0.000000
vn 0.000000 1.000000 0.000000
vn 0.000000 -1.000000 0.000000
vn 0.000000 -1.000000 0.000000
vn 0.000000 -1.000000 0.000000
vn 0.000000 -1.000000 0.000000
vn 0.000000 -1.000000 0.000000
vn 0.000000 -1.000000 0.000000
vn 0.000000 -1.000000 0.000000
vn 0.000000 -1.000000 0.000000
vn 0.000000 -1.000000 0.000000
vn 0.000000 -1.000000 0.000000
vn 0.000000 -1.000000 0.000000
vn 0.000000 -1.000000 0.000000
vn 0.000000 -1.000000 0.000000
vn 0.000000 -1.000000 0.000000
vn 0.000000 -1.000000 0.000000
vn 0.000000 -1.000000 0.000000
vn 0.000000 -1.000000 0.000000
vn 0.000000 -1.000000 0.000000
vn 0.000000 -1.000000 0.000000
vn 0.000000 -1.000000 0.000000
vn 0.000000 -1.000000 0.000000
vn 0.000000 -1.000000 0.000000
vn 0.000000 -1.000000 0.000000
vn 0.000000 -1.000000 0.000000
vn 0.000000 -1.000000 0.000000
vn 0.000000 -1.000000 0.000000
vn 0.000000 -1.000000 0.000000
vn 0.000000 -1.000000 0.000000
vn 0.000000 -1.000000 0.000000
vn 0.000000 -1.000000 0.000000
vn 0.000000 -1.000000 0.000000
vn 0.000000 -1.000000 0.000000
vn 0.000000 -1.000000 -0.000000
vn 0.000000 -1.000000 -0.000000
vn 0.000000 -1.000000 -0.000000
vn 0.000000 -1.000000 -0.000000
vn 0.000000 -1.000000 0.000000
vn 0.000000 -1.000000 0.000000
vn 0.000000 -1.000000 0.000000
vn 0.000000 -1.000000 0.000000
vn 0.000000 -1.000000 0.000000
vn 0.000000 -1.000000 0.000000
vn 0.000000 -1.000000 0.000000
vn 0.000000 -1.000000 0.000000
vn 0.000000 -1.000000 0.000000
vn 0.000000 -1.000000 0.000000
vn 0.000000 -1.000000 0.000000
vn 0.000000 -1.000000 0.000000
vn 0.000000 -1.000000 0.000000
vn 0.000000 -1.000000 0.000000
vn 0.000000 -1.000000 0.000000
vn 0.000000 -1.000000 0.000000
vn 0.000000 -1.000000 0.000000
vn 0.000000 -1.000000 0.000000
vn 0.000000 -1.000000 0.000000
vn 0.000000 -1.000000 0.000000
vn 0.000000 -1.000000 -0.000000
vn 0.000000 -1.000000 -0.000000
vn 0.000000 -1.000000 -0.000000
vn 0.000000 -1.000000 -0.000000
vn 0.000000 -1.000000 0.000000
vn 0.000000 -1.000000 0.000000
vn 0.000000 -1.000000 0.000000
vn 0.000000 -1.000000 0.000000
vn 0.000000 -1.000000 0.000000
vn 0.000000 -1.000000 0.000000
vn 0.000000 -1.000000 0.000000
vn 0.000000 -1.000000 0.000000
vn 0.000000 -1.000000 0.000000
vn 0.000000 -1.000000 0.000000
vn 0.000000 -1.000000 0.000000
vn 0.000000 -1.000000 0.000000
vn 0.000000 -1.000000 0.000000
vn 0.000000 -1.000000 0.000000
vn 0.000000 -1.000000 0.000000
vn 0.000000 -1.000000 0.000000
vn 0.000000 -1.000000 0.000000
vn 0.000000 -1.000000 0.000000
vn 0.000000 -1.000000 0.000000
vn 0.000000 -1.000000 0.000000
vn 0.000000 -1.000000 0.000000
vn 0.000000 -1.000000 0.000000
vn 0.000000 -1.000000 0.000000
vn 0.000000 -1.000000 0.000000
vn 0.000000 -1.000000 0.000000
vn 0.000000 -1.000000 0.000000
vn 0.000000 -1.000000 0.000000
vn 0.000000 -1.000000 0.000000
vn 0.000000 -1.000000 -0.000000
vn 0.000000 -1.000000 -0.000000
vn 0.000000 -1.000000 -0.000000
vn 0.000000 -1.000000 -0.000000
vn 0.000000 -1.000000 0.000000
vn 0.000000 -1.000000 0.000000
vn 0.000000 -1.000000 0.000000
vn 0.000000 -1.000000 0.000000
vn 0.000000 -1.000000 0.000000
vn 0.000000 -1.000000 0.000000
vn 0.000000 -1.000000 0.000000
vn 0.000000 -1.000000 0.000000
vn 0.000000 -1.000000 -0.000000
vn 0.000000 -1.000000 -0.000000
vn 0.000000 -1.000000 -0.000000
vn 0.000000 -1.000000 -0.000000
vn 0.000000 -1.000000 0.000000
vn 0.000000 -1.000000 0.000000
vn 0.000000 -1.000000 0.000000
vn 0.000000 -1.000000 0.000000
vn 0.000000 -1.000000 0.000000
vn 0.000000 -1.000000 0.000000
vn 0.000000 -1.000000 0.000000
vn 0.000000 -1.000000 0.000000
vn 0.000000 -1.000000 0.000000
vn 0.000000 -1.000000 0.000000
vn 0.000000 -1.000000 0.000000
vn 0.000000 -1.000000 0.000000
vn 0.000000 -1.000000 -0.000000
vn 0.000000 -1.000000 -0.000000
vn 0.000000 -1.000000 -0.000000
vn 0.000000 -1.000000 -0.000000
vn 0.000000 -1.000000 -0.000000
vn 0.000000 -1.000000 -0.000000
vn 0.000000 -1.000000 -0.000000
vn 0.000000 -1.000000 -0.000000
vn 0.000000 -1.000000 0.000000
vn 0.000000 -1.000000 0.000000
vn 0.000000 -1.000000 0.000000
vn 0.000000 -1.000000 0.000000
vn 0.000000 1.000000 0.000000
vn 0.000000 1.000000 0.000000
vn 0.000000 1.000000 0.000000
vn 0.000000 1.000000 0.000000
vn 0.000000 1.000000 0.000000
vn 0.000000 1.000000 0.000000
vn 0.000000 1.000000 0.000000
vn 0.000000 1.000000 0.000000
vn 0.000000 1.000000 0.000000
vn 0.000000 1.000000 0.000000
vn 0.000000 1.000000 0.000000
vn 0.000000 1.000000 0.000000
vn 0.000000 1.000000 0.000000
vn 0.000000 1.000000 0.000000
vn 0.000000 1.000000 0.000000
vn 0.000000 1.000000 0.000000
vn 0.000000 1.000000 0.000000
vn 0.000000 1.000000 0.000000
vn 0.000000 1.000000 0.000000
vn 0.000000 1.000000 0.000000
vn 0.000000 1.000000 0.000000
vn 0.000000 1.000000 0.000000
vn 0.000000 1.000000 0.000000
vn 0.000000 1.000000 0.000000
vn 0.000000 1.000000 0.000000
vn 0.000000 1.000000 0.000000
vn 0.000000 1.000000 0.000000
vn 0.000000 1.000000 0.000000
vn 0.000000 1.000000 0.000000
vn 0.000000 1.000000 0.000000
vn 0.000000 1.000000 0.000000
vn 0.000000 1.000000 0.000000
vn 0.000000 1.000000 0.000000
vn 0.000000 1.000000 0.000000
vn 0.000000 1.000000 0.000000
vn 0.000000 1.000000 0.000000
vn 0.000000 1.000000 0.000000
vn 0.000000 1.000000 0.000000
vn 0.000000 1.000000 0.000000
vn 0.000000 1.000000 0.000000
vn 0.000000 1.000000 0.000000
vn 0.000000 1.000000 0.000000
vn 0.000000 1.000000 0.000000
vn 0.000000 1.000000 0.000000
vn 0.000000 1.000000 0.000000
vn 0.000000 1.000000 0.000000
vn 0.000000 1.000000 0.000000
vn 0.000000 1.000000 0.000000
vn 0.000000 1.000000 0.000000
vn 0.000000 1.000000 0.000000
vn 0.000000 1.000000 0.000000
vn 0.000000 1.000000 0.000000
vn 0.000000 1.000000 0.000000
vn 0.000000 1.000000 0.000000
vn 0.000000 1.000000 0.000000
vn 0.000000 1.000000 0.000000
vn 0.000000 1.000000 0.000000
vn 0.000000 1.000000 0.000000
vn 0.000000 1.000000 0.000000
vn 0.000000 1.000000 0.000000
vn 0.000000 1.000000 0.000000
vn 0.000000 1.000000 0.000000
vn 0.000000 1.000000 0.000000
vn 0.000000 1.000000 0.000000
vn 0.000000 1.000000 0.000000
vn 0.000000 1.000000 0.000000
vn 0.000000 1.000000 0.000000
vn 0.000000 1.000000 0.000000
vn 0.000000 1.000000 0.000000
vn 0.000000 1.000000 0.000000
vn 0.000000 1.000000 0.000000
vn 0.000000 1.000000 0.000000
vn 0.000000 1.000000 0.000000
vn 0.000000 1.000000 0.000000
vn 0.000000 1.000000 0.000000
vn 0.000000 1.000000 0.000000
vn 0.000000 1.000000 0.000000
vn 0.000000 1.000000 0.000000
vn 0.000000 1.000000 0.000000
vn 0.000000 1.000000 0.000000
vn 0.000000 1.000000 0.000000
vn 0.000000 1.000000 0.000000
vn 0.000000 1.000000 0.000000
vn 0.000000 1.000000 0.000000
vn 0.000000 1.000000 0.000000
vn 0.000000 1.000000 0.000000
vn 0.000000 1.000000 0.000000
vn 0.000000 1.000000 0.000000
vn 0.000000 1.000000 0.000000
vn 0.000000 1.000000 0.000000
vn 0.000000 1.000000 0.000000
vn 0.000000 1.000000 0.000000
vn 0.000000 1.000000 0.000000
vn 0.000000 1.000000 0.000000
vn 0.000000 1.000000 0.000000
vn 0.000000 1.000000 0.000000
vn 0.000000 1.000000 0.000000
vn 0.000000 1.000000 0.000000
vn 0.000000 1.000000 0.000000
vn 0.000000 1.000000 0.000000
vn 0.000000 1.000000 0.000000
vn 0.000000 1.000000 0.000000
vn 0.000000 1.000000 0.000000
vn 0.000000 1.000000 0.000000
vn 0.000000 1.000000 0.000000
vn 0.000000 1.000000 0.000000
vn 0.000000 1.000000 0.000000
vn 0.000000 1.000000 0.000000
vn 0.000000 1.000000 0.000000
vn 0.000000 1.000000 0.000000
vn 0.000000 1.000000 0.000000
vn 0.000000 1.000000 0.000000
vn 0.000000 1.000000 0.000000
vn 0.000000 1.000000 0.000000
vn 0.000000 1.000000 0.000000
vn 0.000000 1.000000 0.000000
vn 0.000000 1.000000 0.000000
vn 0.000000 1.000000 0.000000
vn 0.000000 1.000000 0.000000
vn 0.000000 1.000000 0.000000
vn 0.000000 1.000000 0.000000
vn 0.000000 1.000000 0.000000
vn 0.000000 1.000000 0.000000
vn 0.000000 1.000000 0.000000
vn 0.000000 1.000000 0.000000
vn 0.000000 1.000000 0.000000
vn 0.000000 1.000000 0.000000
vn 0.000000 1.000000 0.000000
vn -0.956940 0.000000 0.290285
vn -0.956940 0.000000 0.290285
vn -0.956940 0.000000 0.290285
vn -0.956940 0.000000 0.290285
vn 0.956940 0.000000 -0.290284
vn 0.956940 0.000000 -0.290284
vn 0.956940 0.000000 -0.290284
vn 0.956940 0.000000 -0.290284
vn -0.881922 0.000000 0.471395
vn -0.881922 0.000000 0.471395
vn -0.881922 0.000000 0.471395
vn -0.881922 0.000000 0.471395
vn 0.881921 0.000000 -0.471397
vn 0.881921 0.000000 -0.471397
vn 0.881921 0.000000 -0.471397
vn 0.881921 0.000000 -0.471397
vn -0.773010 0.000000 0.634394
vn -0.773010 0.000000 0.634394
vn -0.773010 0.000000 0.634394
vn -0.773010 0.000000 0.634394
vn 0.773011 0.000000 -0.634393
vn 0.773011 0.000000 -0.634393
vn 0.773011 0.000000 -0.634393
vn 0.773011 0.000000 -0.634393
vn -0.634394 0.000000 0.773010
vn -0.634394 0.000000 0.773010
vn -0.634394 0.000000 0.773010
vn -0.634394 0.000000 0.773010
vn 0.634394 0.000000 -0.773010
vn 0.634394 0.000000 -0.773010
vn 0.634394 0.000000 -0.773010
vn 0.634394 0.000000 -0.773010
vn -0.471397 0.000000 0.881921
vn -0.471397 0.000000 0.881921
vn -0.471397 0.000000 0.881921
vn -0.471397 0.000000 0.881921
vn 0.471398 0.000000 -0.881921
vn 0.471398 0.000000 -0.881921
vn 0.471398 0.000000 -0.881921
vn 0.471398 0.000000 -0.881921
vn -0.290285 0.000000 0.956940
vn -0.290285 0.000000 0.956940
vn -0.290285 0.000000 0.956940
vn -0.290285 0.000000 0.956940
vn 0.290285 0.000000 -0.956940
vn 0.290285 0.000000 -0.956940
vn 0.290285 0.000000 -0.956940
vn 0.290285 0.000000 -0.956940
vn -0.098018 0.000000 0.995185
vn -0.098018 0.000000 0.995185
vn -0.098018 0.000000 0.995185
vn -0.098018 0.000000 0.995185
vn 0.098016 0.000000 -0.995185
vn 0.098016 0.000000 -0.995185
vn 0.098016 0.000000 -0.995185
vn 0.098016 0.000000 -0.995185
vn 0.098017 0.000000 0.995185
vn 0.098017 0.000000 0.995185
vn 0.098017 0.000000 0.995185
vn 0.098017 0.000000 0.995185
vn -0.098016 0.000000 -0.995185
vn -0.098016 0.000000 -0.995185
vn -0.098016 0.000000 -0.995185
vn -0.098016 0.000000 -0.995185
vn 0.290284 0.000000 0.956941
vn 0.290284 0.000000 0.956941
vn 0.290284 0.000000 0.956941
vn 0.290284 0.000000 0.956941
vn -0.290284 0.000000 -0.956941
vn -0.290284 0.000000 -0.956941
vn -0.290284 0.000000 -0.956941
vn -0.290284 0.000000 -0.956941
vn 0.471396 0.000000 0.881922
vn 0.471396 0.000000 0.881922
vn 0.471396 0.000000 0.881922
vn 0.471396 0.000000 0.881922
vn -0.471396 0.000000 -0.881921
vn -0.471396 0.000000 -0.881921
vn -0.471396 0.000000 -0.881921
vn -0.471396 0.000000 -0.881921
vn 0.634393 0.000000 0.773011
vn 0.634393 0.000000 0.773011
vn 0.634393 0.000000 0.773011
vn 0.634393 0.000000 0.773011
vn -0.634393 0.000000 -0.773010
vn -0.634393 0.000000 -0.773010
vn -0.634393 0.000000 -0.773010
vn -0.634393 0.000000 -0.773010
vn 0.773010 0.000000 0.634394
vn 0.773010 0.000000 0.634394
vn 0.773010 0.000000 0.634394
vn 0.773010 0.000000 0.634394
vn -0.773010 0.000000 -0.634394
vn -0.773010 0.000000 -0.634394
vn -0.773010 0.000000 -0.634394
vn -0.773010 0.000000 -0.634394
vn 0.881921 0.000000 0.471397
vn 0.881921 0.000000 0.471397
vn 0.881921 0.000000 0.471397
vn 0.881921 0.000000 0.471397
vn -0.881921 0.000000 -0.471398
vn -0.881921 0.000000 -0.471398
vn -0.881921 0.000000 -0.471398
vn -0.881921 0.000000 -0.471398
vn 0.956940 0.000000 0.290285
vn 0.956940 0.000000 0.290285
vn 0.956940 0.000000 0.290285
vn 0.956940 0.000000 0.290285
vn -0.956940 0.000000 -0.290285
vn -0.956940 0.000000 -0.290285
vn -0.956940 0.000000 -0.290285
vn -0.956940 0.000000 -0.290285
vn 0.995185 0.000000 0.098018
vn 0.995185 0.000000 0.098018
vn 0.995185 0.000000 0.098018
vn 0.995185 0.000000 0.098018
vn -0.995185 0.000000 -0.098017
vn -0.995185 0.000000 -0.098017
vn -0.995185 0.000000 -0.098017
vn -0.995185 0.000000 -0.098017
vn 0.995185 0.000000 -0.098017
vn 0.995185 0.000000 -0.098017
vn 0.995185 0.000000 -0.098017
vn 0.995185 0.000000 -0.098017
vn -0.995185 0.000000 0.098016
vn -0.995185 0.000000 0.098016
vn -0.995185 0.000000 0.098016
vn -0.995185 0.000000 0.098016
vn 0.956940 0.000000 -0.290285
vn 0.956940 0.000000 -0.290285
vn 0.956940 0.000000 -0.290285
vn 0.956940 0.000000 -0.290285
vn -0.956941 0.000000 0.290284
vn -0.956941 0.000000 0.290284
vn -0.956941 0.000000 0.290284
vn -0.956941 0.000000 0.290284
vn 0.881922 0.000000 -0.471396
vn 0.881922 0.000000 -0.471396
vn 0.881922 0.000000 -0.471396
vn 0.881922 0.000000 -0.471396
vn -0.881922 0.000000 0.471396
vn -0.881922 0.000000 0.471396
vn -0.881922 0.000000 0.471396
vn -0.881922 0.000000 0.471396
vn 0.773011 0.000000 -0.634393
vn 0.773011 0.000000 -0.634393
vn 0.773011 0.000000 -0.634393
vn 0.773011 0.000000 -0.634393
vn -0.773010 0.000000 0.634394
vn -0.773010 0.000000 0.634394
vn -0.773010 0.000000 0.634394
vn -0.773010 0.000000 0.634394
vn 0.634394 0.000000 -0.773010
vn 0.634394 0.000000 -0.773010
vn 0.634394 0.000000 -0.773010
vn 0.634394 0.000000 -0.773010
vn -0.634395 0.000000 0.773010
vn -0.634395 0.000000 0.773010
vn -0.634395 0.000000 0.773010
vn -0.634395 0.000000 0.773010
vn 0.471397 0.000000 -0.881921
vn 0.471397 0.000000 -0.881921
vn 0.471397 0.000000 -0.881921
vn 0.471397 0.000000 -0.881921
vn -0.471398 0.000000 0.881921
vn -0.471398 0.000000 0.881921
vn -0.471398 0.000000 0.881921
vn -0.471398 0.000000 0.881921
vn 0.290285 0.000000 -0.956940
vn 0.290285 0.000000 -0.956940
vn 0.290285 0.000000 -0.956940
vn 0.290285 0.000000 -0.956940
vn -0.290284 0.000000 0.956941
vn -0.290284 0.000000 0.956941
vn -0.290284 0.000000 0.956941
vn -0.290284 0.000000 0.956941
vn 0.098018 0.000000 -0.995185
vn 0.098018 0.000000 -0.995185
vn 0.098018 0.000000 -0.995185
vn 0.098018 0.000000 -0.995185
vn -0.098017 0.000000 0.995185
vn -0.098017 0.000000 0.995185
vn -0.098017 0.000000 0.995185
vn -0.098017 0.000000 0.995185
vn -0.098017 0.000000 -0.995185
vn -0.098017 0.000000 -0.995185
vn -0.098017 0.000000 -0.995185
vn -0.098017 0.000000 -0.995185
vn 0.098016 0.000000 0.995185
vn 0.098016 0.000000 0.995185
vn 0.098016 0.000000 0.995185
vn 0.098016 0.000000 0.995185
vn -0.290284 0.000000 -0.956941
vn -0.290284 0.000000 -0.956941
vn -0.290284 0.000000 -0.956941
vn -0.290284 0.000000 -0.956941
vn 0.290284 0.000000 0.956941
vn 0.290284 0.000000 0.956941
vn 0.290284 0.000000 0.956941
vn 0.290284 0.000000 0.956941
vn -0.471397 0.000000 -0.881921
vn -0.471397 0.000000 -0.881921
vn -0.471397 0.000000 -0.881921
vn -0.471397 0.000000 -0.881921
vn 0.471397 0.000000 0.881921
vn 0.471397 0.000000 0.881921
vn 0.471397 0.000000 0.881921
vn 0.471397 0.000000 0.881921
vn -0.634393 0.000000 -0.773011
vn -0.634393 0.000000 -0.773011
vn -0.634393 0.000000 -0.773011
vn -0.634393 0.000000 -0.773011
vn 0.634394 0.000000 0.773010
vn 0.634394 0.000000 0.773010
vn 0.634394 0.000000 0.773010
vn 0.634394 0.000000 0.773010
vn -0.773011 0.000000 -0.634393
vn -0.773011 0.000000 -0.634393
vn -0.773011 0.000000 -0.634393
vn -0.773011 0.000000 -0.634393
vn 0.773010 0.000000 0.634394
vn 0.773010 0.000000 0.634394
vn 0.773010 0.000000 0.634394
vn 0.773010 0.000000 0.634394
vn -0.881921 0.000000 -0.471397
vn -0.881921 0.000000 -0.471397
vn -0.881921 0.000000 -0.471397
vn -0.881921 0.000000 -0.471397
vn 0.881921 0.000000 0.471397
vn 0.881921 0.000000 0.471397
vn 0.881921 0.000000 0.471397
vn 0.881921 0.000000 0.471397
vn -0.956940 0.000000 -0.290286
vn -0.956940 0.000000 -0.290286
vn -0.956940 0.000000 -0.290286
vn -0.956940 0.000000 -0.290286
vn 0.956940 0.000000 0.290285
vn 0.956940 0.000000 0.290285
vn 0.956940 0.000000 0.290285
vn 0.956940 0.000000 0.290285
vn -0.995185 0.000000 -0.098017
vn -0.995185 0.000000 -0.098017
vn -0.995185 0.000000 -0.098017
vn -0.995185 0.000000 -0.098017
vn 0.995185 0.000000 0.098017
vn 0.995185 0.000000 0.098017
vn 0.995185 0.000000 0.098017
vn 0.995185 0.000000 0.098017
vn -0.995184 0.000000 0.098023
vn -0.995184 0.000000 0.098023
vn -0.995184 0.000000 0.098023
vn -0.995184 0.000000 0.098023
vn 0.995184 0.000000 -0.098022
vn 0.995184 0.000000 -0.098022
vn 0.995184 0.000000 -0.098022
vn 0.995184 0.000000 -0.098022
s 1
g polySurface4
usemtl initialShadingGroup
f 9/13/1 10/14/2 11/15/3 12/16/4
s off
f 1/5/5 4/8/6 3/7/7 2/6/8
s 2
f 1/1/9 2/2/10 6/10/11 5/9/12
s 3
f 2/2/13 3/3/14 7/11/15 6/10/16
s 4
f 3/3/17 4/4/18 8/12/19 7/11/20
s off
f 4/4/21 1/1/22 5/9/23 8/12/24
s 2
f 5/9/12 6/10/11 10/14/25 9/13/26
s 3
f 6/10/16 7/11/15 11/15/27 10/14/28
s 4
f 7/11/20 8/12/19 12/16/29 11/15/30
s off
f 13/17/31 14/18/32 15/19/33 16/20/34
f 8/12/35 5/9/36 14/18/37 13/17/38
s 2
f 5/9/12 9/13/26 15/19/39 14/18/40
s 1
f 9/13/1 12/16/4 16/20/41 15/19/42
s 4
f 12/16/29 8/12/19 13/17/43 16/20/44
s off
f 81/21/45 82/22/46 83/23/47 84/24/48
f 82/22/49 85/25/50 86/26/51 83/23/52
f 85/25/53 87/27/54 88/28/55 86/26/56
f 87/27/57 89/29/58 90/30/59 88/28/60
f 89/29/61 91/31/62 92/32/63 90/30/64
f 91/31/65 93/33/66 94/34/67 92/32/68
f 93/33/69 95/35/70 96/36/71 94/34/72
f 95/35/73 97/37/74 98/38/75 96/36/76
f 97/37/77 99/39/78 100/40/79 98/38/80
f 99/39/81 101/41/82 102/42/83 100/40/84
f 101/41/85 103/43/86 104/44/87 102/42/88
f 103/43/89 105/45/90 106/46/91 104/44/92
f 105/45/93 107/47/94 108/48/95 106/46/96
f 107/47/97 109/49/98 110/50/99 108/48/100
f 109/49/101 111/51/102 112/52/103 110/50/104
f 111/51/105 113/53/106 114/54/107 112/52/108
f 113/53/109 115/55/110 116/56/111 114/54/112
f 115/55/113 117/57/114 118/58/115 116/56/116
f 117/57/117 119/59/118 120/60/119 118/58/120
f 119/59/121 121/61/122 122/62/123 120/60/124
f 121/61/125 123/63/126 124/64/127 122/62/128
f 123/63/129 125/65/130 126/66/131 124/64/132
f 125/65/133 127/67/134 128/68/135 126/66/136
f 127/67/137 129/69/138 130/70/139 128/68/140
f 129/69/141 131/71/142 132/72/143 130/70/144
f 131/71/145 133/73/146 134/74/147 132/72/148
f 133/73/149 135/75/150 136/76/151 134/74/152
f 135/75/153 137/77/154 138/78/155 136/76/156
f 137/77/157 139/79/158 140/80/159 138/78/160
f 139/79/161 141/81/162 142/82/163 140/80/164
f 141/81/165 143/83/166 144/84/167 142/82/168
f 143/83/169 81/21/170 84/24/171 144/84/172
f 17/85/173 49/86/174 50/87/175 18/88/176
f 18/88/177 50/87/178 51/89/179 19/90/180
f 19/90/181 51/89/182 52/91/183 20/92/184
f 20/92/185 52/91/186 53/93/187 21/94/188
f 21/94/189 53/93/190 54/95/191 22/96/192
f 22/96/193 54/95/194 55/97/195 23/98/196
f 23/98/197 55/97/198 56/99/199 24/100/200
f 24/100/201 56/99/202 57/101/203 25/102/204
f 25/102/205 57/101/206 58/103/207 26/104/208
f 26/104/209 58/103/210 59/105/211 27/106/212
f 27/106/213 59/105/214 60/107/215 28/108/216
f 28/108/217 60/107/218 61/109/219 29/110/220
f 29/110/221 61/109/222 62/111/223 30/112/224
f 30/112/225 62/111/226 63/113/227 31/114/228
f 31/114/229 63/113/230 64/115/231 32/116/232
f 32/116/233 64/115/234 65/117/235 33/118/236
f 33/118/237 65/117/238 66/119/239 34/120/240
f 34/120/241 66/119/242 67/121/243 35/122/244
f 35/122/245 67/121/246 68/123/247 36/124/248
f 36/124/249 68/123/250 69/125/251 37/126/252
f 37/126/253 69/125/254 70/127/255 38/128/256
f 38/128/257 70/127/258 71/129/259 39/130/260
f 39/130/261 71/129/262 72/131/263 40/132/264
f 40/132/265 72/131/266 73/133/267 41/134/268
f 41/134/269 73/133/270 74/135/271 42/136/272
f 42/136/273 74/135/274 75/137/275 43/138/276
f 43/138/277 75/137/278 76/139/279 44/140/280
f 44/140/281 76/139/282 77/141/283 45/142/284
f 45/142/285 77/141/286 78/143/287 46/144/288
f 46/144/289 78/143/290 79/145/291 47/146/292
f 47/146/293 79/145/294 80/147/295 48/148/296
f 48/148/297 80/147/298 49/86/299 17/85/300
f 17/149/301 18/150/302 82/22/303 81/21/304
f 50/151/305 49/152/306 84/24/307 83/23/308
f 18/150/309 19/153/310 85/25/311 82/22/312
f 51/154/313 50/151/314 83/23/315 86/26/316
f 19/153/317 20/155/318 87/27/319 85/25/320
f 52/156/321 51/154/322 86/26/323 88/28/324
f 20/155/325 21/157/326 89/29/327 87/27/328
f 53/158/329 52/156/330 88/28/331 90/30/332
f 21/157/333 22/159/334 91/31/335 89/29/336
f 54/160/337 53/158/338 90/30/339 92/32/340
f 22/159/341 23/161/342 93/33/343 91/31/344
f 55/162/345 54/160/346 92/32/347 94/34/348
f 23/161/349 24/163/350 95/35/351 93/33/352
f 56/164/353 55/162/354 94/34/355 96/36/356
f 24/163/357 25/165/358 97/37/359 95/35/360
f 57/166/361 56/164/362 96/36/363 98/38/364
f 25/165/365 26/167/366 99/39/367 97/37/368
f 58/168/369 57/166/370 98/38/371 100/40/372
f 26/167/373 27/169/374 101/41/375 99/39/376
f 59/170/377 58/168/378 100/40/379 102/42/380
f 27/169/381 28/171/382 103/43/383 101/41/384
f 60/172/385 59/170/386 102/42/387 104/44/388
f 28/171/389 29/173/390 105/45/391 103/43/392
f 61/174/393 60/172/394 104/44/395 106/46/396
f 29/173/397 30/175/398 107/47/399 105/45/400
f 62/176/401 61/174/402 106/46/403 108/48/404
f 30/175/405 31/177/406 109/49/407 107/47/408
f 63/178/409 62/176/410 108/48/411 110/50/412
f 31/177/413 32/179/414 111/51/415 109/49/416
f 64/180/417 63/178/418 110/50/419 112/52/420
f 32/179/421 33/181/422 113/53/423 111/51/424
f 65/182/425 64/180/426 112/52/427 114/54/428
f 33/181/429 34/183/430 115/55/431 113/53/432
f 66/184/433 65/182/434 114/54/435 116/56/436
f 34/183/437 35/185/438 117/57/439 115/55/440
f 67/186/441 66/184/442 116/56/443 118/58/444
f 35/185/445 36/187/446 119/59/447 117/57/448
f 68/188/449 67/186/450 118/58/451 120/60/452
f 36/187/453 37/189/454 121/61/455 119/59/456
f 69/190/457 68/188/458 120/60/459 122/62/460
f 37/189/461 38/191/462 123/63/463 121/61/464
f 70/192/465 69/190/466 122/62/467 124/64/468
f 38/191/469 39/193/470 125/65/471 123/63/472
f 71/194/473 70/192/474 124/64/475 126/66/476
f 39/193/477 40/195/478 127/67/479 125/65/480
f 72/196/481 71/194/482 126/66/483 128/68/484
f 40/195/485 41/197/486 129/69/487 127/67/488
f 73/198/489 72/196/490 128/68/491 130/70/492
f 41/197/493 42/199/494 131/71/495 129/69/496
f 74/200/497 73/198/498 130/70/499 132/72/500
f 42/199/501 43/201/502 133/73/503 131/71/504
f 75/202/505 74/200/506 132/72/507 134/74/508
f 43/201/509 44/203/510 135/75/511 133/73/512
f 76/204/513 75/202/514 134/74/515 136/76/516
f 44/203/517 45/205/518 137/77/519 135/75/520
f 77/206/521 76/204/522 136/76/523 138/78/524
f 45/205/525 46/207/526 139/79/527 137/77/528
f 78/208/529 77/206/530 138/78/531 140/80/532
f 46/207/533 47/209/534 141/81/535 139/79/536
f 79/210/537 78/208/538 140/80/539 142/82/540
f 47/209/541 48/211/542 143/83/543 141/81/544
f 80/212/545 79/210/546 142/82/547 144/84/548
f 48/211/549 17/149/550 81/21/551 143/83/552
f 49/152/553 80/212/554 144/84/555 84/24/556
