# This file uses centimeters as units for non-parametric coordinates.

mtllib Warning.mtl
g default
v 0.832899 0.000000 -0.165673
v 0.784574 0.000000 -0.324981
v 0.706098 0.000000 -0.471799
v 0.600487 0.000000 -0.600486
v 0.471800 0.000000 -0.706097
v 0.324981 0.000000 -0.784573
v 0.165674 0.000000 -0.832899
v 0.000000 0.000000 -0.849216
v -0.165674 0.000000 -0.832899
v -0.324981 0.000000 -0.784574
v -0.471799 0.000000 -0.706098
v -0.600487 0.000000 -0.600487
v -0.706098 0.000000 -0.471800
v -0.784574 0.000000 -0.324981
v -0.832899 0.000000 -0.165674
v -0.849217 0.000000 -0.000000
v -0.832899 0.000000 0.165674
v -0.784574 0.000000 0.324981
v -0.706098 0.000000 0.471799
v -0.600487 0.000000 0.600487
v -0.471800 0.000000 0.706098
v -0.324981 0.000000 0.784574
v -0.165674 0.000000 0.832899
v -0.000000 0.000000 0.849217
v 0.165674 0.000000 0.832900
v 0.324981 0.000000 0.784574
v 0.471800 0.000000 0.706098
v 0.600487 0.000000 0.600487
v 0.706098 0.000000 0.471800
v 0.784574 0.000000 0.324981
v 0.832900 0.000000 0.165674
v 0.849217 0.000000 0.000000
v 0.979028 0.000000 -0.194740
v 0.922225 0.000000 -0.381998
v 0.829980 0.000000 -0.554575
v 0.705840 0.000000 -0.705840
v 0.554575 0.000000 -0.829980
v 0.381998 0.000000 -0.922225
v 0.194741 0.000000 -0.979029
v 0.000000 0.000000 -0.998209
v -0.194740 0.000000 -0.979029
v -0.381998 0.000000 -0.922225
v -0.554575 0.000000 -0.829981
v -0.705840 0.000000 -0.705841
v -0.829980 0.000000 -0.554576
v -0.922225 0.000000 -0.381999
v -0.979029 0.000000 -0.194741
v -0.998209 0.000000 -0.000000
v -0.979029 0.000000 0.194741
v -0.922225 0.000000 0.381998
v -0.829981 0.000000 0.554575
v -0.705841 0.000000 0.705840
v -0.554576 0.000000 0.829981
v -0.381998 0.000000 0.922225
v -0.194741 0.000000 0.979029
v -0.000000 0.000000 0.998209
v 0.194741 0.000000 0.979029
v 0.381998 0.000000 0.922225
v 0.554575 0.000000 0.829981
v 0.705841 0.000000 0.705841
v 0.829981 0.000000 0.554576
v 0.922226 0.000000 0.381998
v 0.979029 0.000000 0.194741
v 0.998210 0.000000 -0.000000
v 0.832899 -0.113733 -0.165673
v 0.784574 -0.113733 -0.324981
v 0.922225 -0.113733 -0.381998
v 0.979028 -0.113733 -0.194740
v 0.706098 -0.113733 -0.471799
v 0.829980 -0.113733 -0.554575
v 0.600487 -0.113733 -0.600486
v 0.705840 -0.113733 -0.705840
v 0.471800 -0.113733 -0.706097
v 0.554575 -0.113733 -0.829980
v 0.324981 -0.113733 -0.784573
v 0.381998 -0.113733 -0.922225
v 0.165674 -0.113733 -0.832899
v 0.194741 -0.113733 -0.979029
v 0.000000 -0.113733 -0.849216
v 0.000000 -0.113733 -0.998209
v -0.165674 -0.113733 -0.832899
v -0.194740 -0.113733 -0.979029
v -0.324981 -0.113733 -0.784574
v -0.381998 -0.113733 -0.922225
v -0.471799 -0.113733 -0.706098
v -0.554575 -0.113733 -0.829981
v -0.600487 -0.113733 -0.600487
v -0.705840 -0.113733 -0.705841
v -0.706098 -0.113733 -0.471800
v -0.829980 -0.113733 -0.554576
v -0.784574 -0.113733 -0.324981
v -0.922225 -0.113733 -0.381999
v -0.832899 -0.113733 -0.165674
v -0.979029 -0.113733 -0.194741
v -0.849217 -0.113733 -0.000000
v -0.998209 -0.113733 -0.000000
v -0.832899 -0.113733 0.165674
v -0.979029 -0.113733 0.194741
v -0.784574 -0.113733 0.324981
v -0.922225 -0.113733 0.381998
v -0.706098 -0.113733 0.471799
v -0.829981 -0.113733 0.554575
v -0.600487 -0.113733 0.600487
v -0.705841 -0.113733 0.705840
v -0.471800 -0.113733 0.706098
v -0.554576 -0.113733 0.829981
v -0.324981 -0.113733 0.784574
v -0.381998 -0.113733 0.922225
v -0.165674 -0.113733 0.832899
v -0.194741 -0.113733 0.979029
v -0.000000 -0.113733 0.849217
v -0.000000 -0.113733 0.998209
v 0.165674 -0.113733 0.832900
v 0.194741 -0.113733 0.979029
v 0.324981 -0.113733 0.784574
v 0.381998 -0.113733 0.922225
v 0.471800 -0.113733 0.706098
v 0.554575 -0.113733 0.829981
v 0.600487 -0.113733 0.600487
v 0.705841 -0.113733 0.705841
v 0.706098 -0.113733 0.471800
v 0.829981 -0.113733 0.554576
v 0.784574 -0.113733 0.324981
v 0.922226 -0.113733 0.381998
v 0.832900 -0.113733 0.165674
v 0.979029 -0.113733 0.194741
v 0.849217 -0.113733 0.000000
v 0.998210 -0.113733 -0.000000
v -0.070503 -0.070503 0.313087
v 0.070503 -0.070503 0.313087
v -0.070503 0.070503 0.313087
v 0.070503 0.070503 0.313087
v -0.070503 0.070503 -0.631575
v 0.070503 0.070503 -0.631575
v -0.070503 -0.070503 -0.631575
v 0.070503 -0.070503 -0.631575
v -0.070503 -0.070503 0.631575
v 0.070503 -0.070503 0.631575
v -0.070503 0.070503 0.631575
v 0.070503 0.070503 0.631575
v -0.070503 0.070503 0.452968
v 0.070503 0.070503 0.452968
v -0.070503 -0.070503 0.452968
v 0.070503 -0.070503 0.452968
vt 0.653248 0.813267
vt 0.644356 0.783956
vt 0.629917 0.756942
vt 0.610485 0.733265
vt 0.586808 0.713833
vt 0.559794 0.699394
vt 0.530483 0.690502
vt 0.500000 0.687500
vt 0.469517 0.690502
vt 0.440206 0.699394
vt 0.413192 0.713833
vt 0.389515 0.733265
vt 0.370083 0.756942
vt 0.355644 0.783956
vt 0.346752 0.813267
vt 0.343750 0.843750
vt 0.346752 0.874233
vt 0.355644 0.903544
vt 0.370083 0.930558
vt 0.389515 0.954235
vt 0.413192 0.973667
vt 0.440206 0.988106
vt 0.469517 0.996998
vt 0.500000 1.000000
vt 0.530483 0.996998
vt 0.559794 0.988106
vt 0.586808 0.973667
vt 0.610485 0.954235
vt 0.629917 0.930558
vt 0.644356 0.903544
vt 0.653248 0.874233
vt 0.656250 0.843750
vt 0.653248 0.874233
vt 0.644356 0.903544
vt 0.629917 0.930558
vt 0.610485 0.954235
vt 0.586808 0.973667
vt 0.559794 0.988106
vt 0.530483 0.996998
vt 0.500000 1.000000
vt 0.469517 0.996998
vt 0.440206 0.988106
vt 0.413192 0.973667
vt 0.389515 0.954235
vt 0.370083 0.930558
vt 0.355644 0.903544
vt 0.346752 0.874233
vt 0.343750 0.843750
vt 0.346752 0.813267
vt 0.355644 0.783956
vt 0.370083 0.756942
vt 0.389515 0.733265
vt 0.413192 0.713833
vt 0.440206 0.699394
vt 0.469517 0.690502
vt 0.500000 0.687500
vt 0.530483 0.690502
vt 0.559794 0.699394
vt 0.586808 0.713833
vt 0.610485 0.733265
vt 0.629917 0.756942
vt 0.644356 0.783956
vt 0.653248 0.813267
vt 0.656250 0.843750
vt 0.653248 0.874233
vt 0.644356 0.903544
vt 0.644356 0.903544
vt 0.653248 0.874233
vt 0.629917 0.930558
vt 0.629917 0.930558
vt 0.610485 0.954235
vt 0.610485 0.954235
vt 0.586808 0.973667
vt 0.586808 0.973667
vt 0.559794 0.988106
vt 0.559794 0.988106
vt 0.530483 0.996998
vt 0.530483 0.996998
vt 0.500000 1.000000
vt 0.500000 1.000000
vt 0.469517 0.996998
vt 0.469517 0.996998
vt 0.440206 0.988106
vt 0.440206 0.988106
vt 0.413192 0.973667
vt 0.413192 0.973667
vt 0.389515 0.954235
vt 0.389515 0.954235
vt 0.370083 0.930558
vt 0.370083 0.930558
vt 0.355644 0.903544
vt 0.355644 0.903544
vt 0.346752 0.874233
vt 0.346752 0.874233
vt 0.343750 0.843750
vt 0.343750 0.843750
vt 0.346752 0.813267
vt 0.346752 0.813267
vt 0.355644 0.783956
vt 0.355644 0.783956
vt 0.370083 0.756942
vt 0.370083 0.756942
vt 0.389515 0.733265
vt 0.389515 0.733265
vt 0.413192 0.713833
vt 0.413192 0.713833
vt 0.440206 0.699394
vt 0.440206 0.699394
vt 0.469517 0.690502
vt 0.469517 0.690502
vt 0.500000 0.687500
vt 0.500000 0.687500
vt 0.530483 0.690502
vt 0.530483 0.690502
vt 0.559794 0.699394
vt 0.559794 0.699394
vt 0.586808 0.713833
vt 0.586808 0.713833
vt 0.610485 0.733265
vt 0.610485 0.733265
vt 0.629917 0.756942
vt 0.629917 0.756942
vt 0.644356 0.783956
vt 0.644356 0.783956
vt 0.653248 0.813267
vt 0.653248 0.813267
vt 0.656250 0.843750
vt 0.656250 0.843750
vt 0.653248 0.874233
vt 0.644356 0.903544
vt 0.644356 0.903544
vt 0.653248 0.874233
vt 0.629917 0.930558
vt 0.629917 0.930558
vt 0.610485 0.954235
vt 0.610485 0.954235
vt 0.586808 0.973667
vt 0.586808 0.973667
vt 0.559794 0.988106
vt 0.559794 0.988106
vt 0.530483 0.996998
vt 0.530483 0.996998
vt 0.500000 1.000000
vt 0.500000 1.000000
vt 0.469517 0.996998
vt 0.469517 0.996998
vt 0.440206 0.988106
vt 0.440206 0.988106
vt 0.413192 0.973667
vt 0.413192 0.973667
vt 0.389515 0.954235
vt 0.389515 0.954235
vt 0.370083 0.930558
vt 0.370083 0.930558
vt 0.355644 0.903544
vt 0.355644 0.903544
vt 0.346752 0.874233
vt 0.346752 0.874233
vt 0.343750 0.843750
vt 0.343750 0.843750
vt 0.346752 0.813267
vt 0.346752 0.813267
vt 0.355644 0.783956
vt 0.355644 0.783956
vt 0.370083 0.756942
vt 0.370083 0.756942
vt 0.389515 0.733265
vt 0.389515 0.733265
vt 0.413192 0.713833
vt 0.413192 0.713833
vt 0.440206 0.699394
vt 0.440206 0.699394
vt 0.469517 0.690502
vt 0.469517 0.690502
vt 0.500000 0.687500
vt 0.500000 0.687500
vt 0.530483 0.690502
vt 0.530483 0.690502
vt 0.559794 0.699394
vt 0.559794 0.699394
vt 0.586808 0.713833
vt 0.586808 0.713833
vt 0.610485 0.733265
vt 0.610485 0.733265
vt 0.629917 0.756942
vt 0.629917 0.756942
vt 0.644356 0.783956
vt 0.644356 0.783956
vt 0.653248 0.813267
vt 0.653248 0.813267
vt 0.656250 0.843750
vt 0.656250 0.843750
vt 0.375000 0.000000
vt 0.625000 0.000000
vt 0.625000 0.250000
vt 0.375000 0.250000
vt 0.625000 0.500000
vt 0.375000 0.500000
vt 0.625000 0.750000
vt 0.375000 0.750000
vt 0.625000 1.000000
vt 0.375000 1.000000
vt 0.875000 0.000000
vt 0.875000 0.250000
vt 0.125000 0.000000
vt 0.125000 0.250000
vt 0.375000 0.000000
vt 0.625000 0.000000
vt 0.625000 0.250000
vt 0.375000 0.250000
vt 0.625000 0.500000
vt 0.375000 0.500000
vt 0.625000 0.750000
vt 0.375000 0.750000
vt 0.625000 1.000000
vt 0.375000 1.000000
vt 0.875000 0.000000
vt 0.875000 0.250000
vt 0.125000 0.000000
vt 0.125000 0.250000
vn 0.000000 -1.000000 -0.000000
vn 0.000000 -1.000000 -0.000000
vn 0.000000 -1.000000 -0.000000
vn 0.000000 -1.000000 -0.000000
vn 0.000000 -1.000000 0.000000
vn 0.000000 -1.000000 0.000000
vn 0.000000 -1.000000 0.000000
vn 0.000000 -1.000000 0.000000
vn 0.000000 -1.000000 0.000000
vn 0.000000 -1.000000 0.000000
vn 0.000000 -1.000000 0.000000
vn 0.000000 -1.000000 0.000000
vn 0.000000 -1.000000 0.000000
vn 0.000000 -1.000000 0.000000
vn 0.000000 -1.000000 0.000000
vn 0.000000 -1.000000 0.000000
vn 0.000000 -1.000000 -0.000000
vn 0.000000 -1.000000 -0.000000
vn 0.000000 -1.000000 -0.000000
vn 0.000000 -1.000000 -0.000000
vn 0.000000 -1.000000 -0.000000
vn 0.000000 -1.000000 -0.000000
vn 0.000000 -1.000000 -0.000000
vn 0.000000 -1.000000 -0.000000
vn 0.000000 -1.000000 -0.000000
vn 0.000000 -1.000000 -0.000000
vn 0.000000 -1.000000 -0.000000
vn 0.000000 -1.000000 -0.000000
vn 0.000000 -1.000000 0.000000
vn 0.000000 -1.000000 0.000000
vn 0.000000 -1.000000 0.000000
vn 0.000000 -1.000000 0.000000
vn 0.000000 -1.000000 0.000000
vn 0.000000 -1.000000 0.000000
vn 0.000000 -1.000000 0.000000
vn 0.000000 -1.000000 0.000000
vn 0.000000 -1.000000 0.000000
vn 0.000000 -1.000000 0.000000
vn 0.000000 -1.000000 0.000000
vn 0.000000 -1.000000 0.000000
vn 0.000000 -1.000000 0.000000
vn 0.000000 -1.000000 0.000000
vn 0.000000 -1.000000 0.000000
vn 0.000000 -1.000000 0.000000
vn 0.000000 -1.000000 0.000000
vn 0.000000 -1.000000 0.000000
vn 0.000000 -1.000000 0.000000
vn 0.000000 -1.000000 0.000000
vn 0.000000 -1.000000 0.000000
vn 0.000000 -1.000000 0.000000
vn 0.000000 -1.000000 0.000000
vn 0.000000 -1.000000 0.000000
vn 0.000000 -1.000000 -0.000000
vn 0.000000 -1.000000 -0.000000
vn 0.000000 -1.000000 -0.000000
vn 0.000000 -1.000000 -0.000000
vn 0.000000 -1.000000 0.000000
vn 0.000000 -1.000000 0.000000
vn 0.000000 -1.000000 0.000000
vn 0.000000 -1.000000 0.000000
vn 0.000000 -1.000000 -0.000000
vn 0.000000 -1.000000 -0.000000
vn 0.000000 -1.000000 -0.000000
vn 0.000000 -1.000000 -0.000000
vn 0.000000 -1.000000 0.000000
vn 0.000000 -1.000000 0.000000
vn 0.000000 -1.000000 0.000000
vn 0.000000 -1.000000 0.000000
vn 0.000000 -1.000000 -0.000000
vn 0.000000 -1.000000 -0.000000
vn 0.000000 -1.000000 -0.000000
vn 0.000000 -1.000000 -0.000000
vn 0.000000 -1.000000 0.000000
vn 0.000000 -1.000000 0.000000
vn 0.000000 -1.000000 0.000000
vn 0.000000 -1.000000 0.000000
vn 0.000000 -1.000000 0.000000
vn 0.000000 -1.000000 0.000000
vn 0.000000 -1.000000 0.000000
vn 0.000000 -1.000000 0.000000
vn 0.000000 -1.000000 0.000000
vn 0.000000 -1.000000 0.000000
vn 0.000000 -1.000000 0.000000
vn 0.000000 -1.000000 0.000000
vn 0.000000 -1.000000 0.000000
vn 0.000000 -1.000000 0.000000
vn 0.000000 -1.000000 0.000000
vn 0.000000 -1.000000 0.000000
vn 0.000000 -1.000000 0.000000
vn 0.000000 -1.000000 0.000000
vn 0.000000 -1.000000 0.000000
vn 0.000000 -1.000000 0.000000
vn 0.000000 -1.000000 -0.000000
vn 0.000000 -1.000000 -0.000000
vn 0.000000 -1.000000 -0.000000
vn 0.000000 -1.000000 -0.000000
vn 0.000000 -1.000000 -0.000000
vn 0.000000 -1.000000 -0.000000
vn 0.000000 -1.000000 -0.000000
vn 0.000000 -1.000000 -0.000000
vn 0.000000 -1.000000 0.000000
vn 0.000000 -1.000000 0.000000
vn 0.000000 -1.000000 0.000000
vn 0.000000 -1.000000 0.000000
vn 0.000000 -1.000000 0.000000
vn 0.000000 -1.000000 0.000000
vn 0.000000 -1.000000 0.000000
vn 0.000000 -1.000000 0.000000
vn 0.000000 -1.000000 0.000000
vn 0.000000 -1.000000 0.000000
vn 0.000000 -1.000000 0.000000
vn 0.000000 -1.000000 0.000000
vn 0.000000 -1.000000 -0.000000
vn 0.000000 -1.000000 -0.000000
vn 0.000000 -1.000000 -0.000000
vn 0.000000 -1.000000 -0.000000
vn 0.000000 -1.000000 0.000000
vn 0.000000 -1.000000 0.000000
vn 0.000000 -1.000000 0.000000
vn 0.000000 -1.000000 0.000000
vn 0.000000 -1.000000 0.000000
vn 0.000000 -1.000000 0.000000
vn 0.000000 -1.000000 0.000000
vn 0.000000 -1.000000 0.000000
vn 0.000000 -1.000000 0.000000
vn 0.000000 -1.000000 0.000000
vn 0.000000 -1.000000 0.000000
vn 0.000000 -1.000000 0.000000
vn 0.000000 1.000000 0.000000
vn 0.000000 1.000000 0.000000
vn 0.000000 1.000000 0.000000
vn 0.000000 1.000000 0.000000
vn 0.000000 1.000000 0.000000
vn 0.000000 1.000000 0.000000
vn 0.000000 1.000000 0.000000
vn 0.000000 1.000000 0.000000
vn 0.000000 1.000000 0.000000
vn 0.000000 1.000000 0.000000
vn 0.000000 1.000000 0.000000
vn 0.000000 1.000000 0.000000
vn 0.000000 1.000000 0.000000
vn 0.000000 1.000000 0.000000
vn 0.000000 1.000000 0.000000
vn 0.000000 1.000000 0.000000
vn 0.000000 1.000000 0.000000
vn 0.000000 1.000000 0.000000
vn 0.000000 1.000000 0.000000
vn 0.000000 1.000000 0.000000
vn 0.000000 1.000000 0.000000
vn 0.000000 1.000000 0.000000
vn 0.000000 1.000000 0.000000
vn 0.000000 1.000000 0.000000
vn 0.000000 1.000000 0.000000
vn 0.000000 1.000000 0.000000
vn 0.000000 1.000000 0.000000
vn 0.000000 1.000000 0.000000
vn 0.000000 1.000000 0.000000
vn 0.000000 1.000000 0.000000
vn 0.000000 1.000000 0.000000
vn 0.000000 1.000000 0.000000
vn 0.000000 1.000000 0.000000
vn 0.000000 1.000000 0.000000
vn 0.000000 1.000000 0.000000
vn 0.000000 1.000000 0.000000
vn 0.000000 1.000000 0.000000
vn 0.000000 1.000000 0.000000
vn 0.000000 1.000000 0.000000
vn 0.000000 1.000000 0.000000
vn 0.000000 1.000000 0.000000
vn 0.000000 1.000000 0.000000
vn 0.000000 1.000000 0.000000
vn 0.000000 1.000000 0.000000
vn 0.000000 1.000000 0.000000
vn 0.000000 1.000000 0.000000
vn 0.000000 1.000000 0.000000
vn 0.000000 1.000000 0.000000
vn 0.000000 1.000000 0.000000
vn 0.000000 1.000000 0.000000
vn 0.000000 1.000000 0.000000
vn 0.000000 1.000000 0.000000
vn 0.000000 1.000000 0.000000
vn 0.000000 1.000000 0.000000
vn 0.000000 1.000000 0.000000
vn 0.000000 1.000000 0.000000
vn 0.000000 1.000000 0.000000
vn 0.000000 1.000000 0.000000
vn 0.000000 1.000000 0.000000
vn 0.000000 1.000000 0.000000
vn 0.000000 1.000000 0.000000
vn 0.000000 1.000000 0.000000
vn 0.000000 1.000000 0.000000
vn 0.000000 1.000000 0.000000
vn 0.000000 1.000000 0.000000
vn 0.000000 1.000000 0.000000
vn 0.000000 1.000000 0.000000
vn 0.000000 1.000000 0.000000
vn 0.000000 1.000000 0.000000
vn 0.000000 1.000000 0.000000
vn 0.000000 1.000000 0.000000
vn 0.000000 1.000000 0.000000
vn 0.000000 1.000000 0.000000
vn 0.000000 1.000000 0.000000
vn 0.000000 1.000000 0.000000
vn 0.000000 1.000000 0.000000
vn 0.000000 1.000000 0.000000
vn 0.000000 1.000000 0.000000
vn 0.000000 1.000000 0.000000
vn 0.000000 1.000000 0.000000
vn 0.000000 1.000000 0.000000
vn 0.000000 1.000000 0.000000
vn 0.000000 1.000000 0.000000
vn 0.000000 1.000000 0.000000
vn 0.000000 1.000000 0.000000
vn 0.000000 1.000000 0.000000
vn 0.000000 1.000000 0.000000
vn 0.000000 1.000000 0.000000
vn 0.000000 1.000000 0.000000
vn 0.000000 1.000000 0.000000
vn 0.000000 1.000000 0.000000
vn 0.000000 1.000000 0.000000
vn 0.000000 1.000000 0.000000
vn 0.000000 1.000000 0.000000
vn 0.000000 1.000000 0.000000
vn 0.000000 1.000000 0.000000
vn 0.000000 1.000000 0.000000
vn 0.000000 1.000000 0.000000
vn 0.000000 1.000000 0.000000
vn 0.000000 1.000000 0.000000
vn 0.000000 1.000000 0.000000
vn 0.000000 1.000000 0.000000
vn 0.000000 1.000000 0.000000
vn 0.000000 1.000000 0.000000
vn 0.000000 1.000000 0.000000
vn 0.000000 1.000000 0.000000
vn 0.000000 1.000000 0.000000
vn 0.000000 1.000000 0.000000
vn 0.000000 1.000000 0.000000
vn 0.000000 1.000000 0.000000
vn 0.000000 1.000000 0.000000
vn 0.000000 1.000000 0.000000
vn 0.000000 1.000000 0.000000
vn 0.000000 1.000000 0.000000
vn 0.000000 1.000000 0.000000
vn 0.000000 1.000000 0.000000
vn 0.000000 1.000000 0.000000
vn 0.000000 1.000000 0.000000
vn 0.000000 1.000000 0.000000
vn 0.000000 1.000000 0.000000
vn 0.000000 1.000000 0.000000
vn 0.000000 1.000000 0.000000
vn 0.000000 1.000000 0.000000
vn 0.000000 1.000000 0.000000
vn 0.000000 1.000000 0.000000
vn 0.000000 1.000000 0.000000
vn 0.000000 1.000000 0.000000
vn 0.000000 1.000000 0.000000
vn -0.956940 0.000000 0.290284
vn -0.956940 0.000000 0.290284
vn -0.956940 0.000000 0.290284
vn -0.956940 0.000000 0.290284
vn 0.956941 0.000000 -0.290284
vn 0.956941 0.000000 -0.290284
vn 0.956941 0.000000 -0.290284
vn 0.956941 0.000000 -0.290284
vn -0.881922 0.000000 0.471396
vn -0.881922 0.000000 0.471396
vn -0.881922 0.000000 0.471396
vn -0.881922 0.000000 0.471396
vn 0.881921 0.000000 -0.471397
vn 0.881921 0.000000 -0.471397
vn 0.881921 0.000000 -0.471397
vn 0.881921 0.000000 -0.471397
vn -0.773011 0.000000 0.634393
vn -0.773011 0.000000 0.634393
vn -0.773011 0.000000 0.634393
vn -0.773011 0.000000 0.634393
vn 0.773011 0.000000 -0.634393
vn 0.773011 0.000000 -0.634393
vn 0.773011 0.000000 -0.634393
vn 0.773011 0.000000 -0.634393
vn -0.634394 0.000000 0.773010
vn -0.634394 0.000000 0.773010
vn -0.634394 0.000000 0.773010
vn -0.634394 0.000000 0.773010
vn 0.634394 0.000000 -0.773010
vn 0.634394 0.000000 -0.773010
vn 0.634394 0.000000 -0.773010
vn 0.634394 0.000000 -0.773010
vn -0.471397 0.000000 0.881921
vn -0.471397 0.000000 0.881921
vn -0.471397 0.000000 0.881921
vn -0.471397 0.000000 0.881921
vn 0.471398 0.000000 -0.881921
vn 0.471398 0.000000 -0.881921
vn 0.471398 0.000000 -0.881921
vn 0.471398 0.000000 -0.881921
vn -0.290285 0.000000 0.956940
vn -0.290285 0.000000 0.956940
vn -0.290285 0.000000 0.956940
vn -0.290285 0.000000 0.956940
vn 0.290285 0.000000 -0.956940
vn 0.290285 0.000000 -0.956940
vn 0.290285 0.000000 -0.956940
vn 0.290285 0.000000 -0.956940
vn -0.098018 0.000000 0.995185
vn -0.098018 0.000000 0.995185
vn -0.098018 0.000000 0.995185
vn -0.098018 0.000000 0.995185
vn 0.098016 0.000000 -0.995185
vn 0.098016 0.000000 -0.995185
vn 0.098016 0.000000 -0.995185
vn 0.098016 0.000000 -0.995185
vn 0.098017 0.000000 0.995185
vn 0.098017 0.000000 0.995185
vn 0.098017 0.000000 0.995185
vn 0.098017 0.000000 0.995185
vn -0.098016 0.000000 -0.995185
vn -0.098016 0.000000 -0.995185
vn -0.098016 0.000000 -0.995185
vn -0.098016 0.000000 -0.995185
vn 0.290284 0.000000 0.956941
vn 0.290284 0.000000 0.956941
vn 0.290284 0.000000 0.956941
vn 0.290284 0.000000 0.956941
vn -0.290284 0.000000 -0.956941
vn -0.290284 0.000000 -0.956941
vn -0.290284 0.000000 -0.956941
vn -0.290284 0.000000 -0.956941
vn 0.471396 0.000000 0.881922
vn 0.471396 0.000000 0.881922
vn 0.471396 0.000000 0.881922
vn 0.471396 0.000000 0.881922
vn -0.471396 0.000000 -0.881921
vn -0.471396 0.000000 -0.881921
vn -0.471396 0.000000 -0.881921
vn -0.471396 0.000000 -0.881921
vn 0.634393 0.000000 0.773011
vn 0.634393 0.000000 0.773011
vn 0.634393 0.000000 0.773011
vn 0.634393 0.000000 0.773011
vn -0.634393 0.000000 -0.773011
vn -0.634393 0.000000 -0.773011
vn -0.634393 0.000000 -0.773011
vn -0.634393 0.000000 -0.773011
vn 0.773010 0.000000 0.634394
vn 0.773010 0.000000 0.634394
vn 0.773010 0.000000 0.634394
vn 0.773010 0.000000 0.634394
vn -0.773010 0.000000 -0.634394
vn -0.773010 0.000000 -0.634394
vn -0.773010 0.000000 -0.634394
vn -0.773010 0.000000 -0.634394
vn 0.881921 0.000000 0.471397
vn 0.881921 0.000000 0.471397
vn 0.881921 0.000000 0.471397
vn 0.881921 0.000000 0.471397
vn -0.881921 0.000000 -0.471398
vn -0.881921 0.000000 -0.471398
vn -0.881921 0.000000 -0.471398
vn -0.881921 0.000000 -0.471398
vn 0.956940 0.000000 0.290286
vn 0.956940 0.000000 0.290286
vn 0.956940 0.000000 0.290286
vn 0.956940 0.000000 0.290286
vn -0.956940 0.000000 -0.290285
vn -0.956940 0.000000 -0.290285
vn -0.956940 0.000000 -0.290285
vn -0.956940 0.000000 -0.290285
vn 0.995185 0.000000 0.098018
vn 0.995185 0.000000 0.098018
vn 0.995185 0.000000 0.098018
vn 0.995185 0.000000 0.098018
vn -0.995185 0.000000 -0.098017
vn -0.995185 0.000000 -0.098017
vn -0.995185 0.000000 -0.098017
vn -0.995185 0.000000 -0.098017
vn 0.995185 0.000000 -0.098017
vn 0.995185 0.000000 -0.098017
vn 0.995185 0.000000 -0.098017
vn 0.995185 0.000000 -0.098017
vn -0.995185 0.000000 0.098016
vn -0.995185 0.000000 0.098016
vn -0.995185 0.000000 0.098016
vn -0.995185 0.000000 0.098016
vn 0.956941 0.000000 -0.290284
vn 0.956941 0.000000 -0.290284
vn 0.956941 0.000000 -0.290284
vn 0.956941 0.000000 -0.290284
vn -0.956941 0.000000 0.290284
vn -0.956941 0.000000 0.290284
vn -0.956941 0.000000 0.290284
vn -0.956941 0.000000 0.290284
vn 0.881921 0.000000 -0.471396
vn 0.881921 0.000000 -0.471396
vn 0.881921 0.000000 -0.471396
vn 0.881921 0.000000 -0.471396
vn -0.881922 0.000000 0.471396
vn -0.881922 0.000000 0.471396
vn -0.881922 0.000000 0.471396
vn -0.881922 0.000000 0.471396
vn 0.773011 0.000000 -0.634393
vn 0.773011 0.000000 -0.634393
vn 0.773011 0.000000 -0.634393
vn 0.773011 0.000000 -0.634393
vn -0.773010 0.000000 0.634394
vn -0.773010 0.000000 0.634394
vn -0.773010 0.000000 0.634394
vn -0.773010 0.000000 0.634394
vn 0.634394 0.000000 -0.773010
vn 0.634394 0.000000 -0.773010
vn 0.634394 0.000000 -0.773010
vn 0.634394 0.000000 -0.773010
vn -0.634394 0.000000 0.773010
vn -0.634394 0.000000 0.773010
vn -0.634394 0.000000 0.773010
vn -0.634394 0.000000 0.773010
vn 0.471397 0.000000 -0.881921
vn 0.471397 0.000000 -0.881921
vn 0.471397 0.000000 -0.881921
vn 0.471397 0.000000 -0.881921
vn -0.471398 0.000000 0.881921
vn -0.471398 0.000000 0.881921
vn -0.471398 0.000000 0.881921
vn -0.471398 0.000000 0.881921
vn 0.290285 0.000000 -0.956940
vn 0.290285 0.000000 -0.956940
vn 0.290285 0.000000 -0.956940
vn 0.290285 0.000000 -0.956940
vn -0.290284 0.000000 0.956941
vn -0.290284 0.000000 0.956941
vn -0.290284 0.000000 0.956941
vn -0.290284 0.000000 0.956941
vn 0.098018 0.000000 -0.995185
vn 0.098018 0.000000 -0.995185
vn 0.098018 0.000000 -0.995185
vn 0.098018 0.000000 -0.995185
vn -0.098017 0.000000 0.995185
vn -0.098017 0.000000 0.995185
vn -0.098017 0.000000 0.995185
vn -0.098017 0.000000 0.995185
vn -0.098017 0.000000 -0.995185
vn -0.098017 0.000000 -0.995185
vn -0.098017 0.000000 -0.995185
vn -0.098017 0.000000 -0.995185
vn 0.098015 0.000000 0.995185
vn 0.098015 0.000000 0.995185
vn 0.098015 0.000000 0.995185
vn 0.098015 0.000000 0.995185
vn -0.290284 0.000000 -0.956941
vn -0.290284 0.000000 -0.956941
vn -0.290284 0.000000 -0.956941
vn -0.290284 0.000000 -0.956941
vn 0.290284 0.000000 0.956940
vn 0.290284 0.000000 0.956940
vn 0.290284 0.000000 0.956940
vn 0.290284 0.000000 0.956940
vn -0.471397 0.000000 -0.881921
vn -0.471397 0.000000 -0.881921
vn -0.471397 0.000000 -0.881921
vn -0.471397 0.000000 -0.881921
vn 0.471397 0.000000 0.881921
vn 0.471397 0.000000 0.881921
vn 0.471397 0.000000 0.881921
vn 0.471397 0.000000 0.881921
vn -0.634393 0.000000 -0.773011
vn -0.634393 0.000000 -0.773011
vn -0.634393 0.000000 -0.773011
vn -0.634393 0.000000 -0.773011
vn 0.634393 0.000000 0.773011
vn 0.634393 0.000000 0.773011
vn 0.634393 0.000000 0.773011
vn 0.634393 0.000000 0.773011
vn -0.773010 0.000000 -0.634393
vn -0.773010 0.000000 -0.634393
vn -0.773010 0.000000 -0.634393
vn -0.773010 0.000000 -0.634393
vn 0.773010 0.000000 0.634394
vn 0.773010 0.000000 0.634394
vn 0.773010 0.000000 0.634394
vn 0.773010 0.000000 0.634394
vn -0.881921 0.000000 -0.471397
vn -0.881921 0.000000 -0.471397
vn -0.881921 0.000000 -0.471397
vn -0.881921 0.000000 -0.471397
vn 0.881921 0.000000 0.471397
vn 0.881921 0.000000 0.471397
vn 0.881921 0.000000 0.471397
vn 0.881921 0.000000 0.471397
vn -0.956940 0.000000 -0.290285
vn -0.956940 0.000000 -0.290285
vn -0.956940 0.000000 -0.290285
vn -0.956940 0.000000 -0.290285
vn 0.956940 0.000000 0.290284
vn 0.956940 0.000000 0.290284
vn 0.956940 0.000000 0.290284
vn 0.956940 0.000000 0.290284
vn -0.995185 0.000000 -0.098017
vn -0.995185 0.000000 -0.098017
vn -0.995185 0.000000 -0.098017
vn -0.995185 0.000000 -0.098017
vn 0.995185 0.000000 0.098017
vn 0.995185 0.000000 0.098017
vn 0.995185 0.000000 0.098017
vn 0.995185 0.000000 0.098017
vn -0.995184 0.000000 0.098023
vn -0.995184 0.000000 0.098023
vn -0.995184 0.000000 0.098023
vn -0.995184 0.000000 0.098023
vn 0.995184 0.000000 -0.098022
vn 0.995184 0.000000 -0.098022
vn 0.995184 0.000000 -0.098022
vn 0.995184 0.000000 -0.098022
vn 0.000000 0.000000 1.000000
vn 0.000000 0.000000 1.000000
vn 0.000000 0.000000 1.000000
vn 0.000000 0.000000 1.000000
vn 0.000000 1.000000 0.000000
vn 0.000000 1.000000 0.000000
vn 0.000000 1.000000 0.000000
vn 0.000000 1.000000 0.000000
vn 0.000000 0.000000 -1.000000
vn 0.000000 0.000000 -1.000000
vn 0.000000 0.000000 -1.000000
vn 0.000000 0.000000 -1.000000
vn 0.000000 -1.000000 0.000000
vn 0.000000 -1.000000 0.000000
vn 0.000000 -1.000000 0.000000
vn 0.000000 -1.000000 0.000000
vn 1.000000 0.000000 0.000000
vn 1.000000 0.000000 0.000000
vn 1.000000 0.000000 0.000000
vn 1.000000 0.000000 0.000000
vn -1.000000 0.000000 0.000000
vn -1.000000 0.000000 0.000000
vn -1.000000 0.000000 0.000000
vn -1.000000 0.000000 0.000000
vn 0.000000 0.000000 1.000000
vn 0.000000 0.000000 1.000000
vn 0.000000 0.000000 1.000000
vn 0.000000 0.000000 1.000000
vn 0.000000 1.000000 0.000000
vn 0.000000 1.000000 0.000000
vn 0.000000 1.000000 0.000000
vn 0.000000 1.000000 0.000000
vn 0.000000 0.000000 -1.000000
vn 0.000000 0.000000 -1.000000
vn 0.000000 0.000000 -1.000000
vn 0.000000 0.000000 -1.000000
vn 0.000000 -1.000000 0.000000
vn 0.000000 -1.000000 0.000000
vn 0.000000 -1.000000 0.000000
vn 0.000000 -1.000000 0.000000
vn 1.000000 0.000000 0.000000
vn 1.000000 0.000000 0.000000
vn 1.000000 0.000000 0.000000
vn 1.000000 0.000000 0.000000
vn -1.000000 0.000000 0.000000
vn -1.000000 0.000000 0.000000
vn -1.000000 0.000000 0.000000
vn -1.000000 0.000000 0.000000
s off
g polySurface2
usemtl initialShadingGroup
f 65/129/1 66/130/2 67/131/3 68/132/4
f 66/130/5 69/133/6 70/134/7 67/131/8
f 69/133/9 71/135/10 72/136/11 70/134/12
f 71/135/13 73/137/14 74/138/15 72/136/16
f 73/137/17 75/139/18 76/140/19 74/138/20
f 75/139/21 77/141/22 78/142/23 76/140/24
f 77/141/25 79/143/26 80/144/27 78/142/28
f 79/143/29 81/145/30 82/146/31 80/144/32
f 81/145/33 83/147/34 84/148/35 82/146/36
f 83/147/37 85/149/38 86/150/39 84/148/40
f 85/149/41 87/151/42 88/152/43 86/150/44
f 87/151/45 89/153/46 90/154/47 88/152/48
f 89/153/49 91/155/50 92/156/51 90/154/52
f 91/155/53 93/157/54 94/158/55 92/156/56
f 93/157/57 95/159/58 96/160/59 94/158/60
f 95/159/61 97/161/62 98/162/63 96/160/64
f 97/161/65 99/163/66 100/164/67 98/162/68
f 99/163/69 101/165/70 102/166/71 100/164/72
f 101/165/73 103/167/74 104/168/75 102/166/76
f 103/167/77 105/169/78 106/170/79 104/168/80
f 105/169/81 107/171/82 108/172/83 106/170/84
f 107/171/85 109/173/86 110/174/87 108/172/88
f 109/173/89 111/175/90 112/176/91 110/174/92
f 111/175/93 113/177/94 114/178/95 112/176/96
f 113/177/97 115/179/98 116/180/99 114/178/100
f 115/179/101 117/181/102 118/182/103 116/180/104
f 117/181/105 119/183/106 120/184/107 118/182/108
f 119/183/109 121/185/110 122/186/111 120/184/112
f 121/185/113 123/187/114 124/188/115 122/186/116
f 123/187/117 125/189/118 126/190/119 124/188/120
f 125/189/121 127/191/122 128/192/123 126/190/124
f 127/191/125 65/129/126 68/132/127 128/192/128
f 1/65/129 33/68/130 34/67/131 2/66/132
f 2/66/133 34/67/134 35/70/135 3/69/136
f 3/69/137 35/70/138 36/72/139 4/71/140
f 4/71/141 36/72/142 37/74/143 5/73/144
f 5/73/145 37/74/146 38/76/147 6/75/148
f 6/75/149 38/76/150 39/78/151 7/77/152
f 7/77/153 39/78/154 40/80/155 8/79/156
f 8/79/157 40/80/158 41/82/159 9/81/160
f 9/81/161 41/82/162 42/84/163 10/83/164
f 10/83/165 42/84/166 43/86/167 11/85/168
f 11/85/169 43/86/170 44/88/171 12/87/172
f 12/87/173 44/88/174 45/90/175 13/89/176
f 13/89/177 45/90/178 46/92/179 14/91/180
f 14/91/181 46/92/182 47/94/183 15/93/184
f 15/93/185 47/94/186 48/96/187 16/95/188
f 16/95/189 48/96/190 49/98/191 17/97/192
f 17/97/193 49/98/194 50/100/195 18/99/196
f 18/99/197 50/100/198 51/102/199 19/101/200
f 19/101/201 51/102/202 52/104/203 20/103/204
f 20/103/205 52/104/206 53/106/207 21/105/208
f 21/105/209 53/106/210 54/108/211 22/107/212
f 22/107/213 54/108/214 55/110/215 23/109/216
f 23/109/217 55/110/218 56/112/219 24/111/220
f 24/111/221 56/112/222 57/114/223 25/113/224
f 25/113/225 57/114/226 58/116/227 26/115/228
f 26/115/229 58/116/230 59/118/231 27/117/232
f 27/117/233 59/118/234 60/120/235 28/119/236
f 28/119/237 60/120/238 61/122/239 29/121/240
f 29/121/241 61/122/242 62/124/243 30/123/244
f 30/123/245 62/124/246 63/126/247 31/125/248
f 31/125/249 63/126/250 64/128/251 32/127/252
f 32/127/253 64/128/254 33/68/255 1/65/256
f 1/31/257 2/30/258 66/130/259 65/129/260
f 34/34/261 33/33/262 68/132/263 67/131/264
f 2/30/265 3/29/266 69/133/267 66/130/268
f 35/35/269 34/34/270 67/131/271 70/134/272
f 3/29/273 4/28/274 71/135/275 69/133/276
f 36/36/277 35/35/278 70/134/279 72/136/280
f 4/28/281 5/27/282 73/137/283 71/135/284
f 37/37/285 36/36/286 72/136/287 74/138/288
f 5/27/289 6/26/290 75/139/291 73/137/292
f 38/38/293 37/37/294 74/138/295 76/140/296
f 6/26/297 7/25/298 77/141/299 75/139/300
f 39/39/301 38/38/302 76/140/303 78/142/304
f 7/25/305 8/24/306 79/143/307 77/141/308
f 40/40/309 39/39/310 78/142/311 80/144/312
f 8/24/313 9/23/314 81/145/315 79/143/316
f 41/41/317 40/40/318 80/144/319 82/146/320
f 9/23/321 10/22/322 83/147/323 81/145/324
f 42/42/325 41/41/326 82/146/327 84/148/328
f 10/22/329 11/21/330 85/149/331 83/147/332
f 43/43/333 42/42/334 84/148/335 86/150/336
f 11/21/337 12/20/338 87/151/339 85/149/340
f 44/44/341 43/43/342 86/150/343 88/152/344
f 12/20/345 13/19/346 89/153/347 87/151/348
f 45/45/349 44/44/350 88/152/351 90/154/352
f 13/19/353 14/18/354 91/155/355 89/153/356
f 46/46/357 45/45/358 90/154/359 92/156/360
f 14/18/361 15/17/362 93/157/363 91/155/364
f 47/47/365 46/46/366 92/156/367 94/158/368
f 15/17/369 16/16/370 95/159/371 93/157/372
f 48/48/373 47/47/374 94/158/375 96/160/376
f 16/16/377 17/15/378 97/161/379 95/159/380
f 49/49/381 48/48/382 96/160/383 98/162/384
f 17/15/385 18/14/386 99/163/387 97/161/388
f 50/50/389 49/49/390 98/162/391 100/164/392
f 18/14/393 19/13/394 101/165/395 99/163/396
f 51/51/397 50/50/398 100/164/399 102/166/400
f 19/13/401 20/12/402 103/167/403 101/165/404
f 52/52/405 51/51/406 102/166/407 104/168/408
f 20/12/409 21/11/410 105/169/411 103/167/412
f 53/53/413 52/52/414 104/168/415 106/170/416
f 21/11/417 22/10/418 107/171/419 105/169/420
f 54/54/421 53/53/422 106/170/423 108/172/424
f 22/10/425 23/9/426 109/173/427 107/171/428
f 55/55/429 54/54/430 108/172/431 110/174/432
f 23/9/433 24/8/434 111/175/435 109/173/436
f 56/56/437 55/55/438 110/174/439 112/176/440
f 24/8/441 25/7/442 113/177/443 111/175/444
f 57/57/445 56/56/446 112/176/447 114/178/448
f 25/7/449 26/6/450 115/179/451 113/177/452
f 58/58/453 57/57/454 114/178/455 116/180/456
f 26/6/457 27/5/458 117/181/459 115/179/460
f 59/59/461 58/58/462 116/180/463 118/182/464
f 27/5/465 28/4/466 119/183/467 117/181/468
f 60/60/469 59/59/470 118/182/471 120/184/472
f 28/4/473 29/3/474 121/185/475 119/183/476
f 61/61/477 60/60/478 120/184/479 122/186/480
f 29/3/481 30/2/482 123/187/483 121/185/484
f 62/62/485 61/61/486 122/186/487 124/188/488
f 30/2/489 31/1/490 125/189/491 123/187/492
f 63/63/493 62/62/494 124/188/495 126/190/496
f 31/1/497 32/32/498 127/191/499 125/189/500
f 64/64/501 63/63/502 126/190/503 128/192/504
f 32/32/505 1/31/506 65/129/507 127/191/508
f 33/33/509 64/64/510 128/192/511 68/132/512
f 129/193/513 130/194/514 132/195/515 131/196/516
f 131/196/517 132/195/518 134/197/519 133/198/520
f 133/198/521 134/197/522 136/199/523 135/200/524
f 135/200/525 136/199/526 130/201/527 129/202/528
f 130/194/529 136/203/530 134/204/531 132/195/532
f 135/205/533 129/193/534 131/196/535 133/206/536
f 137/207/537 138/208/538 140/209/539 139/210/540
f 139/210/541 140/209/542 142/211/543 141/212/544
f 141/212/545 142/211/546 144/213/547 143/214/548
f 143/214/549 144/213/550 138/215/551 137/216/552
f 138/208/553 144/217/554 142/218/555 140/209/556
f 143/219/557 137/207/558 139/210/559 141/220/560
