<?xml version="1.0" encoding="UTF-8" standalone="no"?>
<svg xmlns="http://www.w3.org/2000/svg" viewBox="0 0 128 128" width="128" height="128">
  <path fill="#fff" d="M0.1,116.3c0,1.4,1.1,2.5,2.5,2.5h122.8c1.4,0,2.5-1.1,2.5-2.5V88.7H0.1V116.3z M97.3,102.1 c0-0.5,0.4-0.9,0.9-0.9h18.6c0.5,0,0.9,0.4,0.9,0.9v3.2c0,0.5-0.4,0.9-0.9,0.9H98.2c-0.5,0-0.9-0.4-0.9-0.9V102.1z M125.4,9.2H2.6 c-1.4,0-2.5,1.1-2.5,2.5v27.6h127.8V11.7C127.9,10.4,126.8,9.2,125.4,9.2z M117.6,25.9c0,0.5-0.4,0.9-0.9,0.9H98.2 c-0.5,0-0.9-0.4-0.9-0.9v-3.2c0-0.5,0.4-0.9,0.9-0.9h18.6c0.5,0,0.9,0.4,0.9,0.9V25.9z M0.1,46.7v31.9h127.8V46.7H0.1z M117.6,64.2 c0,0.5-0.4,0.9-0.9,0.9H98.2c-0.5,0-0.9-0.4-0.9-0.9V61c0-0.5,0.4-0.9,0.9-0.9h18.6c0.5,0,0.9,0.4,0.9,0.9V64.2z"/>
</svg>
